<svg aria-label="GitHub" role="img" version="1.1" viewBox="0 0 512 512" xmlns="http://www.w3.org/2000/svg">
 <path d="m76.8 0c-42.55 0-76.8 34.25-76.8 76.8v358.4c0 42.55 34.25 76.8 76.8 76.8h88.2c0.3455-5.021 2.36-13 12-13 13 0 16-6 16-12l-1-50c-71 16-86-28-86-28-12-30-28-37-28-37-24-16 1-16 1-16 26 2 40 26 40 26 22 39 59 28 74 22 2-17 9-28 16-35-57-6-116-28-116-126 0-28 10-51 26-69-3-6-11-32 3-67 0 0 21-7 70 26 42-12 86-12 128 0 49-33 70-26 70-26 14 35 6 61 3 67 16 18 26 41 26 69 0 98-60 120-117 126 10 8 18 24 18 48l-1 70c0 6 3 12 16 12 9.636 0 11.65 7.979 12 13h88.2c42.55 0 76.8-34.25 76.8-76.8v-358.4c0-42.55-34.25-76.8-76.8-76.8h-358.4z"/>
</svg>
