<svg xmlns="http://www.w3.org/2000/svg" aria-label="Auth0" role="img" viewBox="0 0 200 73"><path fill="#16214d"  d="M188.24 19.32c-3.5 0-6.46 1.65-8.57 4.77-2.09 3.1-3.2 7.43-3.2 12.52 0 5.1 1.11 9.42 3.2 12.53 2.1 3.12 5.07 4.77 8.57 4.77s6.46-1.65 8.57-4.77c2.09-3.1 3.19-7.44 3.19-12.53 0-5.09-1.1-9.42-3.2-12.52-2.1-3.12-5.06-4.77-8.56-4.77zm0 30.3c-1.67 0-3-.95-4.05-2.9-1.26-2.35-1.96-5.94-1.96-10.1 0-4.17.7-7.77 1.96-10.12 1.05-1.95 2.38-2.9 4.05-2.9s3 .95 4.05 2.9c1.25 2.35 1.95 5.95 1.95 10.11 0 4.17-.7 7.76-1.96 10.12-1.05 1.94-2.38 2.9-4.05 2.9zm-75.9-17.7v14.87c0 3.93 3.19 7.12 7.1 7.12 3.43 0 6.01-1.7 6.97-2.43a.2.2 0 0 1 .31.1l.58 1.88h4.24V31.92h-5.45v16.1a.2.2 0 0 1-.1.19 11.86 11.86 0 0 1-5.09 1.41 3.13 3.13 0 0 1-3.13-3.13V31.92zm54.53 21.54h5.45V38.58c0-3.92-3.2-7.1-7.11-7.1a11.8 11.8 0 0 0-6.32 1.97.2.2 0 0 1-.31-.17V19.76h-5.45v33.7h5.45v-16.1a.2.2 0 0 1 .1-.19 11.85 11.85 0 0 1 5.07-1.41 3.1 3.1 0 0 1 3.13 3.13v14.57zm-31.4-17.26h3.3c.12 0 .21.1.21.2v11.86a5.66 5.66 0 0 0 5.65 5.65c1.13 0 2.25-.17 3.32-.49v-3.89c-.63.06-1.35.1-1.86.1-.91 0-1.66-.76-1.66-1.67V36.4c0-.12.09-.2.2-.2h3.32v-4.28h-3.32a.2.2 0 0 1-.2-.2V24.6h-5.45v7.11c0 .12-.09.2-.2.2h-3.32zm-31.85 17.26h5.67l-8.62-30.05a5.67 5.67 0 0 0-5.43-4.1 5.68 5.68 0 0 0-5.43 4.1L81.2 53.47h5.67l2.5-8.7a.2.2 0 0 1 .2-.14h11.38c.09 0 .17.06.2.14zM99.6 40.33h-8.7a.2.2 0 0 1-.19-.26l4.35-15.16a.2.2 0 0 1 .39 0l4.35 15.16a.2.2 0 0 1-.04.18.2.2 0 0 1-.16.08z"/><path fill="#eb5424" d="M51.68 59.1l-7.3-22.49 19.12-13.9H39.86L32.56.24h23.63l7.31 22.49A32.55 32.55 0 0 1 51.69 59.1zm-38.26 0L32.55 73l19.13-13.9-19.13-13.9zM1.6 22.7a32.56 32.56 0 0 0 11.82 36.4v-.02l7.3-22.48L1.62 22.7h23.64L32.54.24h.01H8.91z"/></svg>