<svg xmlns="http://www.w3.org/2000/svg" width="128" height="114" viewBox="0 0 128 114">
  <defs>
    <linearGradient id="a" x1="64" x2="64" y1="7" y2="120.8" gradientTransform="matrix(1 0 0 1 0 -7)" gradientUnits="userSpaceOnUse">
      <stop offset="0" stop-color="#4387fd"/>
      <stop offset="1" stop-color="#4683ea"/>
    </linearGradient>
  </defs>
  <path fill="url(#a)" d="M27.8 108.3L1.5 62.8c-2-3.6-2-8 0-11.5L27.8 5.8c2-3.5 5.8-5.7 10-5.7h52.5c4 0 7.9 2.2 10 5.7l26.2 45.5c2 3.5 2 8 0 11.5l-26.3 45.5c-2 3.5-5.8 5.7-10 5.7H37.8c-4 0-7.9-2.2-10-5.7z"/>
  <path d="M94 57l-7 3.2-6.3-8.8-16.7-12L34 57l57 57c3.8-.3 7.3-2.4 9.2-5.7l16.5-28.6z" opacity=".1"/>
  <path fill="#fff" d="M64 34.5L34 57l30 22.5L94 57zM45.3 57L64 44l18.8 13L64 70.2z"/>
  <circle cx="64" cy="57" r="5.6" fill="#fff"/>
</svg>
