<svg xmlns="http://www.w3.org/2000/svg" width="200" height="54">
  <path fill="#6f6f6e" stroke-width=".2" d="M30.4 35c-3.8 3.7-7.6 5.6-11.5 5.6-1.1 0-2.2-.1-3.2-.4-1-.3-2.4-.8-3.9-1.5s-2.8-1.2-4-1.5c-2 2.3-4 3.5-5.7 3.5a2 2 0 0 1-2.1-2c0-1.2.6-2.3 1.8-3.2a11 11 0 0 1 5-1.9A9.6 9.6 0 0 0 8.4 30c.2-1.2.4-3 .5-5.8a21 21 0 0 1 4.5-13c2.7-3.1 5.6-4.7 8.8-4.7 2.2 0 4 .7 5.4 2 1.3 1.4 2 3.2 2 5.3 0 2.5-.7 4.7-2.2 6.5-1.4 1.9-3.1 2.8-5 2.8-1 0-1.8-.3-2.3-.8a3 3 0 0 1-.9-2.2c0-.5 0-1 .3-1.7.4.5 1 .7 1.6.7 1 0 2-.6 2.8-2a8.4 8.4 0 0 0 1.2-4.5 5 5 0 0 0-1-3.2 3 3 0 0 0-2.4-1.2c-1.3 0-2.3.5-3 1.4-.8 1-1.3 2-1.6 3.4l-.9 6.2a37 37 0 0 1-1.6 7.7c-.7 2.2-2.1 4.4-4.2 6.6 1.4-.1 2.5 0 3.5.2s2.4.7 4.2 1.4c1.9.7 3.5 1 4.8 1 2.6 0 5-1.3 7.4-3.9V35zM48 35c-2 1.9-3.8 3.3-5.4 4.3-1.6 1-3.3 1.4-5.2 1.4-2.2 0-3.9-.7-5.2-2a7.5 7.5 0 0 1-2-5.5c0-3.3 1.2-6.3 3.5-9s4.9-4 7.7-4c1.5 0 2.6.3 3.5 1 .9.8 1.3 1.8 1.3 3 0 3.3-3.4 6-10.4 8 .7 3 2.3 4.6 5 4.6 1 0 2-.3 3-.9.9-.5 2.3-1.8 4.2-3.7V35zm-12.4-4.4c4-1.2 6-3.3 6-6.3 0-1.5-.5-2.3-1.6-2.3-1 0-2 .8-3 2.4a12 12 0 0 0-1.4 6.2zm37.7 4.3c-2.6 2.4-4.4 4-5.5 4.7-1 .7-2 1-3 1-2.6 0-3.7-2.1-3.6-6.5-1.6 2.2-3 4-4.3 5a6.5 6.5 0 0 1-4.2 1.6c-1.4 0-2.5-.7-3.5-2a7.8 7.8 0 0 1-1.5-4.7c0-2.4.7-4.7 2-6.8a16 16 0 0 1 5-5.2c2-1.3 3.8-2 5.4-2 2 0 3.3 1 4.1 2.7l4.8-2.6h1.4L68.3 27a30 30 0 0 0-1.6 7.1c0 1.4.5 2 1.4 2 .6 0 1.3-.3 2-1 .8-.6 1.8-1.6 3.2-3V35zM56 36.2c1.5 0 3-1.3 4.4-4 1.4-2.7 2.1-5.2 2.1-7.4 0-1-.2-1.6-.6-2.1a2 2 0 0 0-1.6-.7c-1.5 0-3 1.3-4.4 4a16 16 0 0 0-2.2 7.4c0 .8.3 1.5.7 2 .4.6 1 .8 1.6.8zM92.4 35a22.8 22.8 0 0 1-4.8 4.3c-1.7 1-3 1.5-4.3 1.5-.6 0-1.5-.2-2.5-.7A178 178 0 0 0 79 51.2l-5.9 1c.5-4.3 1.4-9.9 2.7-16.8l-1-2.2-1.5 1.7h-.6v-2l4.5-4.8 2.1-9.1a55.7 55.7 0 0 1 4-10.3c.3-.3 1-.6 1.9-1A52.6 52.6 0 0 1 90 6.6c.6 0 1 .4 1.4 1.2.4.7.6 1.8.6 3 0 2.2-.6 4.4-1.7 6.4a35 35 0 0 1-6.6 7.6l-2 9.8c.8 1.7 2 2.5 3.4 2.5 2.2 0 4.6-1.6 7.2-4.8V35zm-8-13.4a20 20 0 0 0 4.4-5.2c1-1.9 1.6-3.6 1.6-5.1 0-.7-.1-1.2-.4-1.7-.2-.4-.5-.6-.9-.6-.7 0-1.4.9-2 2.7-.8 1.8-1.7 5.1-2.6 9.9zM108 34.9a34 34 0 0 1-5.6 4.4 9.2 9.2 0 0 1-4.6 1.4 5 5 0 0 1-4-2c-1.1-1.3-1.6-3-1.6-5.2 0-3.3.7-7.3 2.1-12 1.4-4.6 3.2-8.8 5.2-12.7l6-2.3h.5c.4 0 .8.3 1 1 .4.6.5 1.5.5 2.6a21 21 0 0 1-2.2 9.4c-1.5 3-3.8 6.2-7 9.6l-.1 3.4a6 6 0 0 0 .7 3.3c.5.8 1.2 1.2 2 1.2a5 5 0 0 0 2.7-1c1-.6 2.5-1.8 4.4-3.8V35zm-9-9.2c2-2.2 3.6-4.7 4.8-7.5a18 18 0 0 0 2-7.1c0-.6-.2-1-.3-1.4-.2-.4-.4-.6-.7-.6-.6 0-1.4 1.5-2.5 4.4-1.2 3-2.2 7-3.3 12.2zm26.7 9.2c-2 2-3.8 3.4-5.4 4.4-1.6 1-3.3 1.4-5.3 1.4s-3.8-.7-5.1-2a7.5 7.5 0 0 1-2-5.5c0-3.3 1.1-6.3 3.5-9 2.3-2.7 4.8-4 7.7-4 1.4 0 2.6.3 3.5 1 .9.8 1.3 1.8 1.3 3 0 3.3-3.5 6-10.4 8 .6 3 2.3 4.6 5 4.6 1 0 2-.3 3-.9.9-.5 2.3-1.8 4.2-3.7V35zm-12.4-4.3c4-1.2 6-3.3 6-6.3 0-1.5-.5-2.3-1.6-2.3-1 0-2 .8-3 2.4a12 12 0 0 0-1.4 6.2zm26 4.3a34 34 0 0 1-5.1 4.4 7.7 7.7 0 0 1-4.2 1.4 4 4 0 0 1-3.3-1.7 7.4 7.4 0 0 1-1.2-4.5c0-1.7.4-3.8 1.2-6.5l1-3.6-1.8.1.7-3.7h2.3l2.2-7.5 6.3-1.3-2.4 8.3 3.3-.2-.8 3.6-3.7.3-1.5 5.3c-.6 1.8-.9 3.3-.9 4.4 0 .7.2 1.3.6 1.8.4.4.8.7 1.4.7.8 0 1.6-.3 2.4-.8.8-.5 2-1.6 3.5-3.2V35z"/>
  <linearGradient id="a" x1="1603.9" x2="1698" y1="1483.1" y2="1483.1" gradientTransform="rotate(9.6 1984.5 -1038) scale(.21991)" gradientUnits="userSpaceOnUse">
    <stop offset="0" stop-color="#89C442"/>
    <stop offset="1" stop-color="#74B844"/>
  </linearGradient>
  <path fill="url(#a)" stroke-width=".2" d="M148.3 21.2c.5.6 10.1 3.8 13.5 7.7 3.3 4 4.8 7.4 4.3 10.8-.4 3.3-2.5 3.3-3.4 4.5-.9 1.2-2.1 2.7-4.5 2.5-3.1-.2-6.3-1.7-8.6-7.1a28.2 28.2 0 0 1-2-13.3c.2-2.8.7-5 .7-5z"/>
  <linearGradient id="b" x1="1606" x2="1687.3" y1="1478.2" y2="1478.2" gradientTransform="rotate(9.6 1991 -1050.4) scale(.21991)" gradientUnits="userSpaceOnUse">
    <stop offset="0" stop-color="#74B844"/>
    <stop offset="1" stop-color="#4A9634"/>
  </linearGradient>
  <path fill="url(#b)" stroke-width=".2" d="M147.7 23l14.5 21.6-.7.7"/>
  <path fill="#3c3c3b" fill-rule="evenodd" stroke-width=".2" d="M92.3 53l.2-1c3.8-2 8.6-2.8 12.5-4.8 1.2.5 1.7-.2 3-.2.4.4-.6 1 .6 1 2.8.3 5.5-.2 8.3-.5 2.8-.2 5.7 0 8.5-.1 1 0 2.3-1.3 3.4-.7.5 1-1.6 1-1 2 5.7 1.3 19.8 7 22.2.8 0 .4-.4 1.1.3 1 4.8-2 12.9-6.7 14.3-8 1.6-1.3 3.7-1.2 5.7-1.7 3.7-.8 7.7-1.7 10.9-3.6 2 1.4 6 2 8.3 1.6 2.3-.5 6-4.3 7.8-5.7.8-.5 1.9-1.6 2.7-1-.5.4 0 1.5-.6 1.3-.3-.7-1 .1-1.5 0l-6 4.6c-.9.6 1 1.1-.1 1.3-5.1 1-12.9-1.5-16 2-5.2 1.8-10 2.2-15 5-2.9 1.5-6.4 4.3-9.4 5.8-.5.2-1.2.3-1.8.7-.8.4-1 1-1.6 1.1-1.5.4-4.7-.4-6.7-.7-6.6-1-13.7-3.7-20-4-2.5-.2-5.4.2-8.2.3-6 .3-9.7.4-14.5 2-2 .7-5 2.4-6.3 1.5z" clip-rule="evenodd"/>
  <linearGradient id="c" x1="1281" x2="1438.7" y1="1562.8" y2="1562.8" gradientTransform="rotate(161.5 206.7 -169.3) scale(.21991)" gradientUnits="userSpaceOnUse">
    <stop offset="0" stop-color="#C1EA71"/>
    <stop offset="1" stop-color="#ACDA55"/>
  </linearGradient>
  <path fill="url(#c)" stroke-width=".2" d="M184.6 1c-.7 1-16 8.9-20.5 16.3-4.6 7.4-6 13.2-4.3 18.7 1.7 5.5 4.9 5.2 6.7 7 1.8 1.9 4.2 4 8.2 3.2 5.1-1.2 10-4.6 12.5-14.3 2.5-9.6.9-18-.1-22.7a67 67 0 0 0-2.5-8.3z"/>
  <linearGradient id="d" x1="1284.6" x2="1422" y1="1554.4" y2="1554.4" gradientTransform="rotate(161.5 206.7 -169.3) scale(.21991)" gradientUnits="userSpaceOnUse">
    <stop offset="0" stop-color="#ACDA55"/>
    <stop offset="1" stop-color="#89C442"/>
  </linearGradient>
  <path fill="url(#d)" stroke-width=".2" d="M184.3 2.5l-18.5 39.8 1 1.1"/>
</svg>
