<svg xmlns="http://www.w3.org/2000/svg" id="new" width="200" height="46" x="0" y="0" version="1.1" viewBox="0 0 200 46" xml:space="preserve">
  <path id="path2601" fill="#4264fb" stroke-width=".3" d="M149.3 13.3c-2.5 0-5 1-6.7 2.9V6.5c0-.3-.2-.5-.5-.5h-3.4c-.3 0-.6.2-.6.5v26.1c0 .3.3.6.6.6h3.4c.3 0 .5-.3.5-.6v-1.8a9.2 9.2 0 0 0 6.7 2.9c5.3 0 9.5-4.6 9.5-10.2s-4.2-10.2-9.5-10.2zm-.8 16.3a6 6 0 0 1-5.9-6v-.2a6 6 0 0 1 5.9-6 6 6 0 0 1 5.8 6 6 6 0 0 1-5.8 6.2z" class="st0"/>
  <path id="path2603" fill="#4264fb" stroke-width=".3" d="M171.3 13.3c-5.7 0-10.3 4.6-10.3 10.2s4.6 10.2 10.3 10.2c5.7 0 10.4-4.6 10.4-10.2s-4.7-10.2-10.4-10.2zm0 16.3a6 6 0 0 1-5.9-6.1 6 6 0 0 1 5.9-6.1 6 6 0 0 1 5.8 6 6 6 0 0 1-5.8 6.2z" class="st0"/>
  <path id="path2605" fill="#4264fb" stroke-width=".3" d="M108 13.8h-3.4c-.3 0-.5.3-.5.6v1.8a9.2 9.2 0 0 0-6.7-2.9c-5.3 0-9.6 4.6-9.6 10.2s4.3 10.2 9.6 10.2c2.5 0 5-1 6.7-2.9v1.8c0 .3.2.6.5.6h3.4c.3 0 .6-.3.6-.6V14.4c0-.3-.3-.6-.6-.6zm-9.8 15.8a6 6 0 0 1-5.9-6.1 6 6 0 0 1 5.9-6.1 6 6 0 0 1 5.8 6v.2a6 6 0 0 1-5.8 6z" class="st0"/>
  <path id="path2607" fill="#4264fb" stroke-width=".3" d="M125 13.3c-2.6 0-5 1-6.7 2.9v-1.8c0-.3-.3-.6-.6-.6h-3.4c-.3 0-.5.3-.5.6v26c0 .4.2.6.5.6h3.4c.3 0 .6-.2.6-.5v-9.7a9.2 9.2 0 0 0 6.6 2.9c5.3 0 9.6-4.6 9.6-10.2s-4.3-10.2-9.6-10.2zm-.8 16.3a6 6 0 0 1-5.9-6v-.2a6 6 0 0 1 5.9-6 6 6 0 0 1 5.8 6 6 6 0 0 1-5.8 6.2z" class="st0"/>
  <path id="path2609" fill="#4264fb" stroke-width=".3" d="M77.7 13.3a6.6 6.6 0 0 0-6 3.8 7.2 7.2 0 0 0-6.3-3.8c-2.1 0-4 1-5.3 2.7v-1.6c0-.3-.2-.6-.5-.6h-3.4c-.3 0-.6.3-.6.6v18.2c0 .3.3.6.6.6h3.4c.3 0 .5-.3.5-.6v-11c.2-2.3 1.8-4.3 4-4.3a4 4 0 0 1 3.9 4.2v11.1c0 .3.2.6.5.6H72c.4 0 .6-.3.6-.6V21.3c.3-2.3 1.9-4 3.8-4a4 4 0 0 1 4 4.2v11.1c0 .3.2.6.5.6h3.5c.3 0 .5-.3.5-.6V20.1a7 7 0 0 0-7.1-6.8z" class="st0"/>
  <path id="path2611" fill="#4264fb" stroke-width=".3" d="M200 32.4l-6-9 5.9-8.8c.1-.2 0-.6-.2-.7l-.3-.1h-3.9c-.3 0-.6.1-.7.4l-3.4 5.7-3.5-5.7a.8.8 0 0 0-.7-.4h-4c-.2 0-.4.3-.4.5v.3l5.9 8.9-5.9 9c-.1.1 0 .5.2.6h4.2c.3 0 .5 0 .7-.3l3.5-5.8 3.5 5.8c.1.2.4.4.7.4h3.9c.3 0 .5-.2.5-.5v-.3z" class="st0"/>
  <path id="path2615" fill="#4264fb" stroke-width=".3" d="M22.5 1a22.5 22.5 0 1 0 0 45 22.5 22.5 0 0 0 0-45zm10.7 28c-7.7 7.7-21.5 5.3-21.5 5.3S9.3 20.5 17 12.8a11.2 11.2 0 0 1 15.8.4c4.5 4.4 4.7 11.5.4 15.8z" class="st0"/>
  <path id="polygon2617" fill="#4264fb" d="M95.4 88.5l8.7 17.9 8.7-17.9 17.9-8.7-17.9-8.7-8.7-17.9-8.7 17.9-17.9 8.7z" class="st0" transform="matrix(.25316 0 0 .25316 -1.3 .7)"/>
</svg>
