<?xml version="1.0" standalone="no"?>
<!DOCTYPE svg PUBLIC "-//W3C//DTD SVG 20010904//EN"
 "http://www.w3.org/TR/2001/REC-SVG-20010904/DTD/svg10.dtd">
<svg version="1.0" xmlns="http://www.w3.org/2000/svg"
 width="700.000000pt" height="700.000000pt" viewBox="0 0 700.000000 700.000000"
 preserveAspectRatio="xMidYMid meet">
<metadata>
Created by potrace 1.14, written by Peter Selinger 2001-2017
</metadata>
<g transform="translate(0.000000,700.000000) scale(0.100000,-0.100000)"
fill="#000000" stroke="none">
<path d="M3285 6994 c-22 -2 -89 -9 -150 -14 -646 -63 -1303 -333 -1820 -747
-131 -104 -345 -311 -460 -443 -460 -530 -746 -1180 -832 -1890 -21 -179 -24
-601 -5 -765 86 -731 365 -1377 825 -1910 538 -624 1270 -1039 2072 -1174 220
-37 335 -46 595 -45 340 0 567 28 875 109 516 135 990 383 1390 728 624 538
1040 1271 1174 2072 36 218 46 336 45 590 0 341 -29 572 -109 880 -199 766
-655 1440 -1299 1924 -479 360 -1068 593 -1681 667 -123 14 -534 27 -620 18z
m690 -203 c604 -94 1138 -326 1605 -700 118 -95 337 -307 440 -426 354 -413
609 -921 725 -1444 24 -109 69 -391 63 -396 -2 -1 -35 -12 -75 -25 -40 -12
-100 -39 -134 -59 -123 -73 -242 -233 -272 -367 -12 -50 -17 -59 -38 -62 -49
-6 -155 -46 -213 -80 -78 -45 -163 -126 -201 -191 -21 -36 -34 -49 -45 -44 -8
3 -44 12 -80 20 -82 19 -186 5 -268 -34 -72 -35 -160 -122 -192 -191 l-25 -52
-87 0 -88 0 0 458 0 457 109 26 c483 117 798 576 730 1065 -66 476 -472 836
-944 837 -364 1 -700 -216 -859 -554 -67 -143 -90 -246 -90 -409 1 -164 23
-269 88 -406 56 -118 93 -171 180 -263 90 -93 169 -149 288 -206 91 -43 234
-85 291 -85 l27 0 0 -465 0 -465 -720 0 -720 0 0 205 0 205 315 0 315 0 0 90
0 90 -175 0 -175 0 0 415 0 415 -1290 0 -1290 0 0 -415 0 -415 -140 0 -140 0
0 -90 0 -90 280 0 280 0 0 -205 0 -205 -592 2 -593 3 -17 80 c-58 271 -84 688
-59 962 60 658 293 1250 698 1775 110 141 392 426 538 542 498 396 1083 637
1725 712 181 21 646 12 825 -15z m1185 -1408 c143 -34 293 -123 395 -235 274
-303 271 -766 -7 -1063 -118 -127 -248 -199 -430 -239 l-28 -6 0 127 0 128
245 245 245 245 -62 62 -63 63 -182 -182 -183 -183 0 168 0 168 -92 -3 -93 -3
-3 -125 -3 -124 -157 157 -157 157 -65 -65 -65 -65 228 -228 227 -227 0 -158
c0 -143 -2 -157 -17 -157 -45 1 -155 34 -230 70 -416 201 -569 717 -332 1117
40 67 143 180 208 227 181 133 406 180 621 129z m-1590 -1738 l0 -325 -1115 0
-1115 0 0 325 0 325 1115 0 1115 0 0 -325z m3247 -212 c-6 -219 -23 -382 -60
-573 l-22 -115 -397 -3 -397 -2 26 75 c70 209 227 325 441 325 39 0 72 1 72 3
1 1 5 46 9 99 14 148 72 257 178 330 42 28 124 66 147 68 5 0 6 -87 3 -207z
m-3527 -498 l0 -205 -830 0 -830 0 0 205 0 205 830 0 830 0 0 -205z m2489
-115 c20 -11 52 -33 71 -49 l35 -30 -209 -1 -210 0 30 31 c73 77 191 97 283
49z m896 -292 c-8 -38 -100 -290 -121 -330 -11 -21 -23 -27 -61 -32 -27 -4
-1175 -112 -2553 -241 -1378 -130 -2646 -249 -2818 -265 -173 -17 -326 -30
-341 -30 -23 0 -35 14 -91 103 -80 128 -197 353 -254 488 -43 103 -116 310
-116 329 0 7 1127 10 3181 10 l3181 0 -7 -32z m-251 -600 c-29 -58 -167 -279
-213 -342 l-28 -40 -1999 -548 -1999 -549 -138 68 c-82 40 -132 70 -125 74 7
4 528 156 1158 339 630 182 1148 335 1151 338 6 6 -33 158 -43 168 -3 2 -563
-158 -1246 -356 -682 -198 -1244 -360 -1249 -360 -11 0 -186 125 -265 189 -47
38 -55 47 -40 53 9 4 265 53 567 109 303 56 552 104 554 105 6 5 -20 150 -30
165 -6 11 -136 -11 -646 -108 l-638 -122 -84 87 c-93 97 -226 251 -220 256 2
1 184 19 404 39 401 38 657 62 1460 137 237 23 594 56 795 75 201 19 606 57
900 85 1216 114 1408 132 1685 159 160 16 296 29 303 30 8 1 3 -17 -14 -51z
m-473 -667 c-49 -62 -252 -253 -368 -346 -745 -597 -1694 -846 -2632 -689
-207 34 -481 106 -451 118 20 7 3462 955 3473 955 5 1 -5 -16 -22 -38z"/>
<path d="M2444 5902 c-97 -71 -171 -186 -196 -303 l-11 -56 -73 28 c-81 32
-220 59 -301 59 l-54 0 6 -57 c3 -32 8 -73 11 -90 l5 -33 62 0 c156 -1 296
-59 359 -149 l17 -24 80 29 81 29 -7 35 c-14 67 -6 182 17 243 21 56 82 131
123 154 17 9 16 15 -24 86 -24 43 -46 77 -49 77 -4 0 -25 -13 -46 -28z"/>
<path d="M2727 5266 l-57 -65 63 -79 c95 -117 122 -178 124 -282 l2 -84 74
-38 75 -37 28 40 c41 59 122 129 182 157 46 20 65 24 133 20 l79 -3 15 52 c32
109 32 110 -11 122 -104 29 -257 1 -355 -64 -28 -20 -54 -33 -57 -30 -3 3 -17
33 -32 68 -33 80 -84 156 -152 231 l-53 58 -58 -66z"/>
</g>
</svg>
