<svg xmlns="http://www.w3.org/2000/svg" width="80" height="15"><defs><clipPath clipPathUnits="userSpaceOnUse"><rect class="a"/></clipPath></defs><g transform="matrix(0.988 0 0 0.933 -324 -357)"><rect width="80" height="15" x="328.5" y="382.9" style="fill:#fff;stroke:#000"/><rect y="384.4" x="330" height="12" width="77" class="a"/><path d="M330 384.4L330 396.4 350.3 396.4C351.6 394.6 352.5 392.6 352.5 390.4 352.5 388.2 351.7 386.1 350.4 384.4L330 384.4z" style="fill:#abb1aa;stroke-opacity:0.5"/><g transform="translate(158 145)matrix(0.9612533 0 0 0.9612533 6.8341566 9.5069994)" clip-path="url(#clipPath3442)"><path cx="296.4" ry="22.9" cy="264.4" type="arc" rx="22.9" d="M190.1 245.4C190.1 249.3 186.9 252.4 183 252.4 179.1 252.4 176 249.3 176 245.4 176 245.4 176 245.4 176 245.4 176 241.5 179.1 238.3 183 238.3 186.9 238.3 190.1 241.5 190.1 245.4 190.1 245.4 190.1 245.4 190.1 245.4z" fill="#fff"/><path d="M188.7 239.6C190.3 241.2 191.1 243.1 191.1 245.4 191.1 247.6 190.3 249.5 188.8 251 187.2 252.6 185.2 253.4 183 253.4 180.8 253.4 178.9 252.7 177.3 251.1 175.7 249.5 174.9 247.6 174.9 245.4 174.9 243.2 175.7 241.2 177.3 239.6 178.9 238.1 180.8 237.3 183 237.3 185.3 237.3 187.2 238.1 188.7 239.6zM178.4 240.7C177.1 242 176.4 243.6 176.4 245.4 176.4 247.2 177.1 248.7 178.4 250 179.7 251.3 181.2 252 183 252 184.8 252 186.4 251.3 187.7 250 189 248.8 189.6 247.2 189.6 245.4 189.6 243.5 189 242 187.7 240.7 186.4 239.4 184.9 238.7 183 238.7 181.2 238.7 179.6 239.4 178.4 240.7zM181.9 244.6C181.7 244.1 181.4 243.9 181 243.9 180.2 243.9 179.9 244.4 179.9 245.4 179.9 246.3 180.2 246.8 181 246.8 181.4 246.8 181.8 246.6 182 246.1L182.9 246.6C182.5 247.5 181.8 247.9 180.8 247.9 180.1 247.9 179.5 247.6 179.1 247.2 178.6 246.8 178.4 246.1 178.4 245.4 178.4 244.6 178.7 244 179.1 243.5 179.6 243.1 180.1 242.9 180.8 242.9 181.8 242.9 182.5 243.2 182.9 244L181.9 244.6zM186.5 244.6C186.3 244.1 186 243.9 185.6 243.9 184.9 243.9 184.5 244.4 184.5 245.4 184.5 246.3 184.9 246.8 185.6 246.8 186.1 246.8 186.4 246.6 186.6 246.1L187.6 246.6C187.1 247.5 186.4 247.9 185.5 247.9 184.8 247.9 184.2 247.6 183.8 247.2 183.3 246.8 183.1 246.1 183.1 245.4 183.1 244.6 183.3 244 183.8 243.5 184.2 243.1 184.8 242.9 185.5 242.9 186.5 242.9 187.2 243.2 187.6 244L186.5 244.6z"/></g><path d="M357.4 389.7C357.7 389.7 357.9 389.6 358 389.5 358.1 389.4 358.2 389.3 358.2 389.1 358.2 388.8 358.1 388.7 358 388.6 357.9 388.5 357.7 388.4 357.4 388.4L356.6 388.4 356.6 389.7 357.4 389.7M357.5 392.3C357.8 392.3 358 392.2 358.2 392.1 358.3 392 358.4 391.8 358.4 391.5 358.4 391.3 358.3 391.1 358.2 390.9 358 390.8 357.8 390.7 357.5 390.7L356.6 390.7 356.6 392.3 357.5 392.3M358.9 390.2C359.3 390.2 359.5 390.4 359.7 390.7 359.9 390.9 360 391.3 360 391.6 360 392.2 359.8 392.7 359.4 392.9 359 393.2 358.4 393.4 357.6 393.4L355 393.4 355 387.4 357.3 387.4C358.2 387.4 358.8 387.5 359.2 387.7 359.5 388 359.7 388.4 359.7 388.9 359.7 389.2 359.7 389.5 359.5 389.7 359.4 389.9 359.2 390.1 358.9 390.2M359.8 387.4L361.5 387.4 362.9 389.5 364.3 387.4 366 387.4 363.7 390.8 363.7 393.4 362.1 393.4 362.1 390.8 359.8 387.4M365.2 390.4L367.7 390.4 367.7 391.6 365.2 391.6 365.2 390.4M373.1 387.6L373.1 388.8C372.8 388.7 372.5 388.6 372.2 388.5 371.8 388.4 371.5 388.4 371.3 388.4 370.9 388.4 370.6 388.4 370.4 388.5 370.3 388.6 370.2 388.8 370.2 389 370.2 389.2 370.2 389.3 370.3 389.4 370.5 389.5 370.7 389.5 371 389.6L371.7 389.7C372.3 389.9 372.8 390.1 373.1 390.4 373.4 390.6 373.5 391 373.5 391.5 373.5 392.2 373.3 392.7 372.9 393 372.5 393.3 371.9 393.5 371.1 393.5 370.7 393.5 370.3 393.4 370 393.4 369.6 393.3 369.2 393.2 368.8 393L368.8 391.7C369.2 391.9 369.6 392.1 369.9 392.2 370.3 392.3 370.6 392.4 371 392.4 371.3 392.4 371.6 392.3 371.7 392.2 371.9 392.1 372 391.9 372 391.7 372 391.5 372 391.4 371.8 391.3 371.7 391.2 371.5 391.1 371.1 391L370.5 390.9C369.9 390.7 369.4 390.5 369.2 390.3 368.9 390 368.8 389.6 368.8 389.1 368.8 388.5 368.9 388.1 369.3 387.7 369.7 387.4 370.3 387.3 371 387.3 371.3 387.3 371.7 387.3 372 387.3 372.4 387.4 372.7 387.5 373.1 387.6M378.6 392.3L376.1 392.3 375.7 393.4 374.2 393.4 376.4 387.4 378.3 387.4 380.5 393.4 378.9 393.4 378.6 392.3M376.5 391.2L378.2 391.2 377.3 388.8 376.5 391.2" style="fill:#fff;"/></g></svg>