<svg xmlns="http://www.w3.org/2000/svg"
aria-label="CC BY-SA" role="img"
width="80" height="15"><path d="M1.97 1.93h76.04v11.2H1.97z"/><path d="M1.97 1.95v11.2h20.09a9.08 9.08 0 0 0 2.16-5.6c0-2.06-.86-3.98-2.13-5.6z" fill="#abb1aa"/><path d="M19.29 7.53c0 3.5-3 6.33-6.69 6.33-3.69 0-6.69-2.83-6.69-6.32 0-3.5 3-6.33 6.69-6.33 3.7 0 6.69 2.82 6.69 6.32z" fill="#fff"/><path d="M18.04 2.38a6.81 6.81 0 0 1 2.22 5.15 6.7 6.7 0 0 1-2.18 5.1 7.79 7.79 0 0 1-5.49 2.16 7.58 7.58 0 0 1-5.39-2.14 6.8 6.8 0 0 1-2.26-5.12c0-1.98.75-3.7 2.26-5.15a7.52 7.52 0 0 1 5.4-2.1c2.14 0 3.96.7 5.44 2.1zm-9.84.95a5.64 5.64 0 0 0-.02 8.38 6.23 6.23 0 0 0 4.43 1.76c1.72 0 3.2-.6 4.48-1.78a5.4 5.4 0 0 0 1.8-4.15c0-1.66-.61-3.07-1.83-4.22a6.23 6.23 0 0 0-4.45-1.73c-1.74 0-3.2.58-4.41 1.74zm3.3 3.5c-.2-.4-.48-.6-.86-.6-.68 0-1.02.44-1.02 1.3 0 .86.34 1.29 1.02 1.29.45 0 .76-.21.96-.63l.93.47a2.2 2.2 0 0 1-2 1.12c-.7 0-1.25-.2-1.66-.6-.42-.4-.63-.94-.63-1.65 0-.69.22-1.23.64-1.64.43-.4.97-.6 1.6-.6.95 0 1.63.34 2.03 1.05zm4.41 0c-.2-.4-.47-.6-.84-.6-.7 0-1.04.44-1.04 1.3 0 .86.35 1.29 1.04 1.29.44 0 .76-.21.94-.63l.95.47a2.19 2.19 0 0 1-2 1.12c-.7 0-1.24-.2-1.66-.6-.41-.4-.62-.94-.62-1.65 0-.69.21-1.23.63-1.64.42-.4.96-.6 1.6-.6.95 0 1.63.34 2.03 1.05z"/><path d="M29.05 6.9c.24 0 .43-.05.55-.15.13-.1.2-.25.2-.44 0-.2-.07-.34-.2-.44-.12-.1-.3-.15-.55-.15h-.85V6.9h.85m.05 2.45c.31 0 .54-.06.7-.18.16-.13.23-.31.23-.56 0-.24-.07-.42-.23-.54-.15-.12-.38-.19-.7-.19h-.9v1.47h.9m1.43-2.01c.33.09.59.25.77.5.18.24.27.54.27.89 0 .54-.2.94-.58 1.2-.39.27-.98.4-1.77.4h-2.56v-5.6h2.31c.83 0 1.43.12 1.8.36.37.23.56.6.56 1.12 0 .28-.07.51-.2.7a1.2 1.2 0 0 1-.6.43m.91-2.6h1.68l1.36 1.99 1.36-2h1.69l-2.28 3.24v2.36h-1.54V7.97l-2.27-3.24m5.25 2.85h2.51v1.09h-2.5v-1.1m7.86-2.66v1.18a5.72 5.72 0 0 0-.96-.3c-.31-.08-.6-.11-.88-.11-.37 0-.64.05-.82.14a.47.47 0 0 0-.26.44c0 .15.06.27.17.36.12.08.34.15.65.21l.66.12c.66.13 1.13.32 1.41.57.28.26.42.62.42 1.1 0 .6-.2 1.07-.59 1.37-.39.3-.98.45-1.78.45a6.52 6.52 0 0 1-2.29-.4V8.82c.39.2.75.34 1.1.43a4 4 0 0 0 1.04.15c.33 0 .6-.06.77-.16a.5.5 0 0 0 .27-.45.48.48 0 0 0-.19-.4 1.9 1.9 0 0 0-.72-.26l-.6-.13a2.65 2.65 0 0 1-1.3-.57 1.4 1.4 0 0 1-.42-1.06c0-.56.2-.99.58-1.29.38-.3.93-.45 1.65-.45a9.48 9.48 0 0 1 2.09.28m5.36 4.4h-2.4l-.38 1.02h-1.55l2.21-5.6h1.84l2.2 5.6H50.3l-.38-1.02M47.9 8.27h1.64l-.82-2.22-.82 2.22" fill="#fff"/><path d="M0 0 L80 0 L80 15 L0 15 Z" stroke="#fff" stroke-width="3.6" fill-opacity="0"/><path d="M0 0 L80 0 L80 15 L0 15 Z" stroke="#000" stroke-width="2" fill-opacity="0"/></svg>
