<?xml version="1.0" ?><svg enable-background="new 0 0 64 64" viewBox="0 0 64 64" xmlns="http://www.w3.org/2000/svg"><path d="M15.1 16.01c-3.448.258-5.63 1.08-10.293 4.577C.143 24.083-.72 31.743.497 36.217s4.867 9.1 8.72 10.64c3.853 1.543 9.937 2.058 15.26-1.953s5.577-8.997 5.83-12.596c.253-3.6-.963-4.884-4.26-9.666S17.53 15.83 15.1 16.012zM26.2 30.92c-.203-.256-2.434-3.598-3.042-3.29-.608.31-.608.567-.355.824.254.257 3.093 4.01 3.093 4.42 0 .412-.152 1.543-.304 1.286-.152-.257-2.383-4.833-3.093-4.987-.71-.154-1.165.05-.76.514.407.463 3.347 4.987 3.347 5.553 0 .566-.456 1.85-.862 1.697-.405-.154-2.23-4.524-3.042-4.833s-1.217.36-.963.72c.254.36 3.448 5.14 3.245 5.5-.203.36-.76.875-.913.618-.152-.257-2.484-5.14-3.143-5.14-.66 0-1.167.667-.76 1.233.404.566 3.244 4.78 3.244 5.038 0 .257-1.267 1.594-1.622 1.13-.355-.462-2.08-4.832-2.687-4.935-.608-.103-1.42.257-1.166.463.253.207 2.737 4.628 2.483 4.937-.253.308-.558 1.13-1.065.77s-2.687-4.986-3.143-5.037c-.456-.05-.862-.05-.862.308 0 .36 3.296 5.14 2.89 5.347-.405.206-1.52.823-1.977.308-.456-.514-2.332-4.936-2.788-4.936-.456 0-1.217.206-1.065.668.152.463 2.788 4.37 2.28 4.473-.506.103-1.47.41-1.774-.206-.305-.617-2.79-5.14-3.398-5.398-.608-.257-1.065-.206-1.065.308s3.245 4.987 2.738 4.884c-.507-.103-3.245-2.21-4.36-3.085-1.115-.873-3.955-5.5-4.005-9.202-.05-3.702 3.245-9.51 7.25-11.208s6.996-2.21 8.974-1.697c1.134.295 5.526 3.445 6.844 4.987s1.774 3.188 1.42 2.828c-.355-.36-1.42-2.057-2.08-1.594-.658.463-.557.72-.202 1.08.355.36 2.586 2.673 2.84 3.445.25.77.05 2.468-.154 2.21zM8.508 21.873c-1.267-.05-3.955 2.776-4.664 4.68s-.76 3.7-.304 3.855c0 0 .507.154.963 0s.71-1.542 1.267-3.805c.558-2.262 2.94-3.24 3.448-3.6.506-.36.557-1.078-.71-1.13zm53.79 4.01c-1.875-3.805-4.51-7.66-9.176-9.15-4.664-1.492-8.842.487-11.51 1.9-3.295 1.75-5.728 6.068-5.982 8.484-.253 2.416-.81 8.277 2.94 13.06 3.753 4.78 7.707 5.294 12.878 5.14 5.17-.154 9.075-5.244 11.204-8.637 2.13-3.394 1.523-6.993-.353-10.798zm-1.317 4.68c-.404-.412-2.635-4.782-3.09-4.782-.457 0-1.218.206-.812.668.405.463 3.346 5.244 3.295 5.86-.05.618-.304 2.057-.66 1.646-.354-.41-2.737-5.5-3.143-5.5-.405 0-.81.873-.608 1.233.203.36 3.144 5.09 2.99 5.45-.15.36-.658 1.028-.962.925-.304-.103-2.586-4.576-3.093-4.524-.507.05-.81.668-.66 1.028s2.587 4.68 2.485 4.987c-.1.308-1.014 1.594-1.217 1.44-.203-.154-2.28-5.14-2.84-5.244-.557-.104-.962.205-.912.513.05.308 2.586 5.038 2.23 5.398-.354.36-1.013.875-1.57.464-.558-.41-2.18-4.987-2.636-5.14-.456-.155-1.318.462-1.268.667.05.207 2.686 4.937 2.128 4.937-.558 0-1.774.41-2.332-.206-.558-.616-1.724-5.09-2.383-5.192-.66-.103-1.267.514-1.166.874.1.36 2.586 4.576 2.08 4.627-.508.05-1.927.102-2.08-.258-.152-.36-1.876-4.32-2.484-4.42-.608-.104-1.115.205-.913.41.203.206 1.47 3.24 1.014 3.085-.456-.154-3.7-2.828-4.97-5.86-1.266-3.034.66-9.05 2.333-11.26 1.673-2.21 3.346-3.033 4.31-3.496 1.09-.522 3.245-1.13 6.134-.976s6.49 2.828 7.657 4.42c1.166 1.595 3.447 4.114 3.498 4.988.052.874.052 3.65-.354 3.24zm-14.904-9.615c-.71-.05-3.092.977-4.816 3.136-1.724 2.16-1.896 4.64-1.724 4.884.254.36.76.514 1.42.36s.76-3.496 1.47-4.473c.71-.977 3.042-2.057 3.802-2.52s.558-1.336-.152-1.387z"/></svg>