<?xml version="1.0" ?><svg enable-background="new 0 0 64 64" viewBox="0 0 64 64" xmlns="http://www.w3.org/2000/svg"><path d="M62.827 26.474c-.62-4.577-2.548-8.12-5.003-12.605-2.456-4.486-6.91-7.683-10.053-9.914C44.628 1.726 40.267.69 36.067.276s-9.404-.442-12.9.483c-4.865 1.287-7.986 2.62-11.29 5.634s-5.762 6.072-7.85 9.5C1.935 19.32.35 24.564.1 27.118c-.252 2.553-.046 6.05.85 10.03.894 3.978 2.914 7.68 5.806 12.144 2.892 4.462 6.954 7.29 11.66 10.144 4.704 2.852 14.573 5.014 18.315 4.485 3.742-.528 8.883-1.816 14.162-6.002 5.28-4.186 8.217-11.11 9.823-15.434 1.607-4.325 2.732-11.433 2.112-16.01zM55.39 46.117c-.16 0-2.18-3.703-2.294-3.98-.088-.21.826-1.908.918-1.93.092-.024 2.226 3.886 2.203 3.978-.023.092-.666 1.932-.826 1.932zM47.634 21.62c-.092-.252-.138-.482-.115-.574.023-.092.643-1.656.46-3.013-.185-1.357-.78-3.52-.735-3.588.046-.07 2.456 1.863 3.833 4.968s2.548 5.474 2.984 9.683.23 7.314-1.262 10.144-2.57 4.44-3.397 5.29c-.825.85-2.547 1.656-2.753 1.656s-.94-3.726-1.515-4.9c-.574-1.172-1.607-2.713-1.584-2.966 0 0 1.72-1.54 2.318-2.46.597-.92 2.548-4.164 2.456-7.752-.092-3.59-.597-6.234-.69-6.487zm9.456 21.323c-.185.16-2.656-4.102-2.526-4.232.207-.206.895-2.414 1.033-2.506s2.41 4.048 2.41 4.324c0 .276-.734 2.254-.918 2.415zm3.12-11.317c-.297-.253-2.202-4.53-2.455-4.623-.252-.092-.826.897-.69 1.265s2.663 4.53 2.732 4.922c.07.39-.184 2.392-.252 2.093-.07-.3-1.974-4.002-2.203-4.002-.23 0-.85.806-.826.944.023.138 2.502 4.738 2.502 5.037 0 .3-.344 2.186-.55 1.84-.208-.344-2.618-4.346-2.663-4.46-.046-.116.046-5.613-.23-8.074-.274-2.46-1.192-7.337-4.612-11.317-3.42-3.98-7.046-6.717-12.28-7.96s-8.4-1.172-12.324-.988c-3.926.184-9.595 2.438-13.474 8.05-3.88 5.612-4.453 7.176-5.325 11.225-.87 4.048.093 10.052.804 12.65.712 2.6 2.57 6.372 4.682 8.327 2.112 1.955 4.75 3.174 6.817 3.933s5.187 1.22 5.44 1.127c.252-.092.138-3.266 0-3.634-.138-.368-.252-.552-1.102-.506-.848.046-2.386.023-3.396-.437-1.01-.46-1.836-1.38-2.41-2.415-.574-1.035-1.4-2.3-1.836-2.783-.436-.484-1.354-1.312-1.24-1.473.116-.16 1.837-.322 3.03.046 1.195.368 3.214 1.725 4.086 2.277.872.552 1.997 1.357 2.387 1.357.39 0 1.195-1.84 1.54-2.277.343-.437 1.147-1.91.802-2.23-.344-.323-2.456-.415-3.512-.69-1.056-.277-2.96-1.312-4.315-3.083-1.354-1.77-1.974-4.416-1.95-6.28.022-1.862 1.835-5.45 2.202-6.163.367-.713.85-1.38.62-1.633-.23-.252-1.216-1.632-1.446-2.598-.228-.966.598-3.335.758-3.427.16-.092 1.262.207 2.09.322.825.115 2.66.62 3.35 1.08.69.46.94.69 1.33.69.39 0 3.42-.69 4.454-.92 1.033-.23 4.085-.597 5.233-.367 1.148.23 2.87 1.265 3.167 1.08.298-.183.987-1.494 2.456-1.862 1.47-.368 3.97-.53 4.27-.276.297.253.733 2.898.504 4.255-.23 1.357-.62 2.14-.39 2.507.23.368 1.33 2.852.757 5.06-.575 2.208-1.4 5.36-4.132 7.452-2.73 2.093-3.626 2.438-3.948 2.645-.32.208 0 .852.298 1.105s2.318 1.61 3.305 4.646c.987 3.037 1.148 4.83 1.148 5.452s.713.874 1.263.76c.55-.116 1.193-.507 2.09-1.197.894-.69 3.442-2.507 3.625-2.415.184.092 1.767 3.473 2.157 3.588.39.115.666-.16.71-.39.047-.23-1.238-2.692-1.583-3.36-.344-.666-.597-1.057-.505-1.264.092-.207.872-1.15 1.033-.99.16.162 1.86 2.853 2.157 3.313.298.46.528.552.207 1.104-.32.553-1.446 2.025-1.997 2.508-.55.483-.757 1.08-1.08.828-.32-.253-1.927-3.15-2.18-3.197-.25-.047-.94.574-.87.78s2.18 3.336 2.18 3.474-1.057 1.495-2.158 2.346-1.814 1.38-2.02 1.08c-.208-.298-2.365-5.312-2.71-5.38-.343-.07-1.055.183-.94.597.115.414 2.754 5.06 2.73 5.29s-.87.782-1.124.552c-.252-.23-3.03-5.958-3.374-6.004s-.94.115-.94.667 3.58 5.635 3.42 5.91c-.162.277-.827.898-1.08.645-.252-.253-3.535-6.808-3.764-6.854-.23-.046-1.056.184-1.056.345 0 .16 3.718 7.06 3.695 7.22-.023.162-1.446.852-1.767.69-.32-.16-3.58-7.45-3.833-7.612-.252-.16-1.262.53-1.193.62.07.093 4.017 6.947 3.81 7.292-.207.345-1.125.46-1.285.3-.162-.162-3.857-7.223-4.11-7.292s-1.032.322-.963.62c.07.3 3.925 6.74 3.81 6.786-.115.046-1.102.092-1.262-.023-.16-.114-3.49-5.335-3.902-5.45s-.895.506-.895.644 3.19 4.738 3.03 4.784c-.16.046-1.216-.046-1.446-.184-.23-.138-2.433-4.048-2.73-4.14-.3-.092-1.01.437-.92.667.093.23 2.25 3.175 1.975 3.175s-1.01.023-1.33-.16c-.322-.185-1.837-3.267-2.113-3.36-.275-.09-.826.323-.85.438-.022.115 1.172 2.277.92 2.3-.253.023-1.08-.023-1.286-.184-.207-.162-1.607-2.508-1.813-2.577-.207-.07-.872.3-.803.506s.734 1.218.505 1.24c-.23.024-4.958-1.287-7.505-3.035-2.548-1.748-7.3-7.13-8.768-8.763-1.47-1.633-3.512-6.51-4.223-9.155-.71-2.645-.894-6.578-.87-8.67.022-2.094 1.652-7.59 2.57-9.455.918-1.863 4.453-6.923 6.84-9.338s6.243-5.267 10.305-6.486 7.482-1.472 9.364-1.45c4.475.056 9.57.714 12.69 1.772 3.122 1.058 8.952 5.658 10.398 7.314 1.446 1.656 3.19 4.623 4.223 6.785 1.034 2.16 1.79 4.024 1.585 3.863s-1.492-2.415-1.744-2.392c-.25.024-.802.415-.71.714.092.3 2.433 3.933 2.662 4.393.23.46.46.99.482 1.08.023.093.32 3.244.23 3.083-.092-.16-2.318-4.21-2.617-4.324-.298-.115-.528.345-.46.46.07.115 3.1 5.29 3.1 5.543-.003.253.112 2.37-.186 2.116zm-41.634-9.844c.482.46-.62 1.196-1.4 2.92-.78 1.726-1.492 5.13-1.08 7.177.414 2.046 1.355 4.46 3.558 6.37 2.203 1.91 5.187 2.024 5.508 2.185.32.16-.55 1.31-.734 1.54-.184.23-.16.185-.597-.045-.435-.23-2.937-2.37-5.553-2.92-2.617-.553-4.223.23-4.797.735-.574.506.07 1.426.803 1.978.734.552 1.584 1.587 2.662 3.565 1.08 1.978 1.744 2.415 3.49 3.013 1.743.6 3.12.622 3.396.645.276.023.208.828.024 1.127-.184.3-.895-.46-1.95-.76-1.057-.298-3.03-.482-4.132-1.172s-4.66-4.853-5.325-6.67c-.666-1.817-2.066-5.91-2.09-7.958-.022-2.047-.183-5.543.62-8.165.804-2.622 2.572-6.97 5.257-9.96 2.685-2.99 6.564-5.29 12.302-5.91 5.738-.622 10.787 1.103 13.932 2.184 3.144 1.082 3.88 1.75 3.88 1.956 0 0-.942.184-3.42.345-2.48.162-4.086 1.473-4.178 1.634-.092.16-2.617-.414-5.256-.62-2.64-.208-6.29.965-6.426.965s-.505-.024-1.492-.415c-.987-.39-5.692-1.426-6.243-1.38-.55.046-1.767 1.54-2.02 3.772-.252 2.232.78 3.405 1.263 3.865zM37.26 2.277c-4.11-.575-6.732-.306-6.91-.138-.412.39-.274 1.15.23 1.24.505.093 2.96-.298 6.197.024 3.236.322 5.623 1.54 6.128 1.564.505.023.803-.805.528-1.104-.276-.3-2.066-1.012-6.174-1.587zM6.824 17.664c-3.26 3.38-3.856 7.82-4.13 9.34s.71 2.16 1.17 1.954c.46-.207-.023-1.495 1.033-4.876s2.41-4.6 2.846-5.45c.435-.853-.687-1.208-.92-.968zm15.01 13.088c-.367-.966-.092-2.23.138-3.312.23-1.08-.804-1.035-1.056-.782-.666.667-.918 2.783-.666 4.094.253 1.31 1.424 3.243 2.044 3.542.62.3 1.216-.092 1.08-.736-.14-.644-1.172-1.84-1.54-2.806zm-3.74 10.604c-1.01.667-.024 1.334.39 1.334s.825-.16.642-.805c-.184-.644-.793-.688-1.033-.53zm2.088 1.817c-.734.414-.07 1.357.413 1.38s.872-.345.895-.828c.024-.483-.987-.733-1.307-.552zm2.87 1.288c-1.034.23-.69 1.243-.185 1.312s.94-.115 1.08-.644c.136-.53-.246-.812-.896-.667zm18.43-26.473c.23.023.917.138 1.238.138.322 0 .3 1.886.46 2.46.16.576 1.01.6 1.33.277.322-.322-.114-3.404-.343-3.703-.23-.3-2.446.12-2.73.183-.208.045-.185.62.045.644zm6.104 36.433c.23.046.826-.23.872-.575.045-.345-1.722-4.53-1.883-4.623-.16-.092-1.216.262-1.216.46 0 .39 1.998 4.692 2.227 4.738z"/></svg>