<svg viewBox="100 100 800 800" xmlns="http://www.w3.org/2000/svg"><circle cx="497.79846" cy="501.46774" fill="#11b0a3" r="385.27399"/><circle cx="668.41974" cy="373.6546" fill="#007200" r="105.79745"/><path d="m254.5 446.5h253.679v74h-253.679z" fill="#fff"/><path d="m136.967 607.222h726.066c-57.11135 240.8379-221.9539 263.45139-350.55746 284.41205-179.35056-27.79061-319.70273-103.81609-375.50854-284.41205z" fill="#8c5015" stroke="#000"/><path d="m722.864 587.222c.21508-23.13369 65.1926 3.17951 148.92007-120.595 16.83996 41.20733 16.38133 79.38767-3.43207 120.595z" fill="#007200" stroke="#008080"/><path d="m867.18 344.883c-20.071-47.454-48.804-90.07-85.397-126.665-36.595-36.594-79.211-65.326-126.665-85.397-49.137-20.783-101.325-31.321-155.118-31.321s-105.982 10.538-155.117 31.32c-47.454 20.071-90.07 48.803-126.665 85.397-36.594 36.595-65.326 79.211-85.397 126.665-20.783 49.136-31.321 101.325-31.321 155.118s10.538 105.981 31.32 155.117c20.071 47.454 48.803 90.07 85.397 126.665 36.595 36.594 79.211 65.326 126.665 85.397 49.136 20.783 101.325 31.321 155.118 31.321s105.981-10.538 155.117-31.32c47.454-20.071 90.07-48.804 126.665-85.397 36.594-36.595 65.326-79.211 85.397-126.665 20.783-49.137 31.321-101.325 31.321-155.118s-10.538-105.982-31.32-155.117zm-735.531 242.339c-6.632-28.011-10.149-57.213-10.149-87.222 0-208.706 169.794-378.5 378.5-378.5 196.429 0 358.381 150.407 376.757 342.1-13.628 2.413-26.226 8.826-36.313 18.687-10.811 10.567-17.762 24.097-20.073 38.793-22.906 2.934-42.818 16.779-53.562 37.052-6.209-2.791-12.988-4.271-19.876-4.271-21.442 0-39.656 14.015-46.007 33.36h-20.426v-105.378c55.029-5.998 98-52.744 98-109.343 0-60.654-49.346-110-110-110s-110 49.346-110 110c0 57.964 45.066 105.595 102 109.708v105.014h-164v-46.722h72v-20h-40.321v-94h-293.679v94h-32v20h64v46.722zm641.642 0h-50.427c5.033-8.012 13.929-13.36 24.068-13.36 6.617 0 13.061 2.323 18.144 6.543zm-112.791-162.58v37.499c-45.892-4.062-82-42.711-82-89.641 0-49.626 40.374-90 90-90s90 40.374 90 90c0 45.558-34.027 83.313-78 89.198v-29.056l56.071-56.071-14.143-14.143-41.928 41.93v-37.858h-20v29.858l-36.929-36.929-14.143 14.143zm-406 95.858v-74h253.679v74zm222 20v46.722h-190v-46.722zm23.5 338c-41.063 0-80.617-6.576-117.669-18.725l402.292-110.538c-69.428 79.186-171.285 129.263-284.623 129.263zm305.924-155.856-455.329 125.11c-11.394-4.914-22.501-10.372-33.287-16.342l266.424-77.309-5.574-19.207-284.206 82.469c-13.255-8.636-25.942-18.073-37.983-28.253l131.385-24.785-3.708-19.653-146.306 27.6c-12.818-12.37-24.769-25.633-35.749-39.688l635.11-59.787c-8.988 17.442-19.289 34.102-30.777 49.845zm40.807-70.878-658.914 62.028c-22.179-32.285-39.487-68.164-50.85-106.572h726.066c-4.517 15.269-9.972 30.14-16.302 44.544zm-69.454-64.544 3.7-11.435c6.811-21.05 26.226-35.211 48.346-35.287l9.97.001.242-9.752c.578-23.322 16.808-42.274 38.611-47.065.23 5.411.354 10.849.354 16.316 0 30.009-3.518 59.211-10.148 87.222z"/><path d="m343.116 274.526 18.709-6.86c-.099-.363-9.585-36.439 17.031-50.531l-9.357-17.676c-19.426 10.284-27.008 28.141-28.921 44.661-21.129-12.011-47.718-9.92-49.266-9.786l1.732 19.925c.392-.035 39.331-2.75 50.072 20.267z"/><path d="m410.027 333.285 18.064 8.407c.772-1.331 19.245-32.496 47.79-23.716l5.882-19.115c-21.012-6.467-38.996.8-52.031 11.13-6.446-23.437-26.727-40.757-27.917-41.757l-12.864 15.314c.3.252 29.756 25.867 21.076 49.737z"/><path d="m291.312 476.5h177.188v20h-177.188z" fill="#ffba00"/></svg>