<svg xmlns="http://www.w3.org/2000/svg"
aria-label="CC BY-NC" role="img"
width="80" height="15"><path d="M1.97 1.93h76.04v11.2H1.97z"/><path d="M1.97 1.95v11.2h20.09a9.08 9.08 0 0 0 2.16-5.6c0-2.06-.86-3.98-2.13-5.6z" fill="#abb1aa"/><path d="M19.29 7.53c0 3.5-3 6.33-6.69 6.33-3.69 0-6.69-2.83-6.69-6.32 0-3.5 3-6.33 6.69-6.33 3.7 0 6.69 2.82 6.69 6.32z" fill="#fff"/><path d="M0 0 L80 0 L80 15 L0 15 Z" stroke="#fff" stroke-width="4" fill-opacity="0"/><path d="M0 0 L80 0 L80 15 L0 15 Z" stroke="#000" stroke-width="2" fill-opacity="0"/><path d="M18.04 2.38a6.81 6.81 0 0 1 2.22 5.15 6.7 6.7 0 0 1-2.18 5.1 7.79 7.79 0 0 1-5.49 2.16 7.58 7.58 0 0 1-5.39-2.14 6.8 6.8 0 0 1-2.26-5.12c0-1.98.75-3.7 2.26-5.15a7.52 7.52 0 0 1 5.4-2.1c2.14 0 3.96.7 5.44 2.1zm-9.84.95a5.64 5.64 0 0 0-.02 8.38 6.23 6.23 0 0 0 4.43 1.76c1.72 0 3.2-.6 4.48-1.78a5.4 5.4 0 0 0 1.8-4.15c0-1.66-.61-3.07-1.83-4.22a6.23 6.23 0 0 0-4.45-1.73c-1.74 0-3.2.58-4.41 1.74zm3.3 3.5c-.2-.4-.48-.6-.86-.6-.68 0-1.02.44-1.02 1.3 0 .86.34 1.29 1.02 1.29.45 0 .76-.21.96-.63l.93.47a2.2 2.2 0 0 1-2 1.12c-.7 0-1.25-.2-1.66-.6-.42-.4-.63-.94-.63-1.65 0-.69.22-1.23.64-1.64.43-.4.97-.6 1.6-.6.95 0 1.63.34 2.03 1.05zm4.41 0c-.2-.4-.47-.6-.84-.6-.7 0-1.04.44-1.04 1.3 0 .86.35 1.29 1.04 1.29.44 0 .76-.21.94-.63l.95.47a2.19 2.19 0 0 1-2 1.12c-.7 0-1.24-.2-1.66-.6-.41-.4-.62-.94-.62-1.65 0-.69.21-1.23.63-1.64.42-.4.96-.6 1.6-.6.95 0 1.63.34 2.03 1.05z"/><path d="m29 6.9c0.24 0 0.43-0.05 0.55-0.15 0.13-0.1 0.19-0.25 0.19-0.44-1e-5 -0.19-0.063-0.34-0.19-0.44-0.13-0.1-0.31-0.15-0.55-0.15h-0.85v1.2h0.85m0.052 2.4c0.31 0 0.54-0.061 0.7-0.18 0.16-0.12 0.24-0.31 0.24-0.56 0-0.24-0.077-0.42-0.23-0.54-0.15-0.12-0.39-0.18-0.7-0.18h-0.9v1.5h0.9m1.4-2c0.33 0.09 0.59 0.26 0.77 0.5 0.18 0.24 0.27 0.54 0.27 0.89-1e-5 0.54-0.19 0.94-0.58 1.2-0.39 0.27-0.98 0.4-1.8 0.4h-2.6v-5.6h2.3c0.83 0 1.4 0.12 1.8 0.35 0.37 0.24 0.56 0.61 0.56 1.1 0 0.27-0.068 0.51-0.2 0.7-0.14 0.19-0.33 0.33-0.59 0.42m0.91-2.6h1.7l1.4 2 1.4-2h1.7l-2.3 3.2v2.4h-1.5v-2.4l-2.3-3.2m5.3 2.8h2.5v1.1h-2.5v-1.1m3.7-2.8h1.7l2.2 3.8v-3.8h1.5v5.6h-1.7l-2.2-3.8v3.8h-1.5v-5.6m12 5.3c-0.28 0.14-0.58 0.24-0.88 0.31-0.31 0.07-0.63 0.11-0.96 0.11-0.99 0-1.8-0.26-2.4-0.78-0.58-0.52-0.87-1.2-0.87-2.1 0-0.9 0.29-1.6 0.87-2.1 0.58-0.52 1.4-0.78 2.4-0.78 0.33 9.3e-6 0.65 0.035 0.96 0.11 0.31 0.07 0.6 0.17 0.88 0.31v1.2c-0.29-0.18-0.57-0.32-0.84-0.4-0.28-0.085-0.57-0.13-0.88-0.13-0.55 9.3e-6 -0.98 0.17-1.3 0.5-0.31 0.33-0.47 0.79-0.47 1.4 0 0.58 0.16 1 0.47 1.4 0.31 0.33 0.75 0.5 1.3 0.5 0.31 0 0.6-0.042 0.88-0.13 0.28-0.085 0.56-0.22 0.84-0.4v1.2" fill="#fff"/></svg>
