<svg version="1" xmlns="http://www.w3.org/2000/svg" width="1066.667" height="1066.667" viewBox="0 0 800.000000 800.000000"><path d="M373.5.7C196.2 12.4 47 141 9.1 314.7-2 365.7-2.9 421.3 6.6 473c20.8 112.7 89 210.6 188.4 270.4 42 25.3 89.1 42.7 138 51 25 4.2 36.8 5.1 68 5.1 31.6-.1 45.7-1.3 72-6.1 124-22.9 231-104.3 286.5-217.9 25.7-52.7 38.7-106.1 40.2-165.5 3.1-119.5-46.2-231.8-136.3-310.9C598.1 41.8 517.3 7.8 430.1 1 417.7.1 385.6-.1 373.5.7zm66.3 21.9c85.9 8.7 166 47.1 228.2 109.4 60 59.9 97.9 136.7 108.4 219.5.8 6 1.3 11.1 1.1 11.3-.2.2-2.9 1-6.2 1.9-10.8 2.8-21 8.9-30.3 18.3-9.7 9.7-14.9 18.5-17.9 30.2l-1.9 7.2-7.3 1.8c-16.4 3.9-34.3 16.5-42.8 30l-3.5 5.5-5.9-1.9c-7.3-2.3-19.4-2.4-26.8-.2-13.5 4-26 14.4-30.9 25.7l-2.5 5.7H582V382.5l10.8-2.6c43.1-10.5 72.6-38.6 83.3-79.7 4.2-16.1 3.6-40.7-1.6-58.7-10.5-36.3-39.7-65.4-76.2-76-25.4-7.4-50.5-4.9-75.8 7.5-26.7 13-45.7 34.4-55.8 62.7-7.8 21.6-7.8 50.9 0 72.6 12.2 34.4 39.5 60.2 74 70.2 4.4 1.3 10.8 2.7 14.2 3.1l6.1.7V487H397v-46h72v-21h-40v-94H133v94h-32v21h64v46H30.3l-.6-3.3c-.3-1.7-1.7-9.3-3.1-16.7-4.6-25.3-5.9-43.5-5.3-74.5.8-42.8 5.8-72.6 18.7-111.6C84.3 146.3 201.1 47.3 341.5 25.1c32.3-5.1 64.8-5.9 98.3-2.5zM408 383.5V421H154v-75h254v37.5zM376 464v23H186v-46h190v23z"/><path d="M279 125.4c-11.2 8.2-19.6 21.2-22.2 34.1-.7 3.3-1.2 6.1-1.3 6.2-.1.1-3.5-1.1-7.6-2.6-4-1.6-10.8-3.6-15-4.5-8.1-1.7-24.3-2.6-25.4-1.4-.4.4-.3 4.9.1 10l.9 9.3 11 1.1c13.4 1.4 18.3 2.7 25.8 6.6 5.4 2.9 11.9 8.9 12.9 11.8.3 1.1 2.7.6 10.2-2.1l9.7-3.4-.8-4c-1.3-6.7-.8-19.6 1-25.7 2-6.7 6.6-13.1 12.4-17.3 2.3-1.6 4.2-3.3 4.2-3.7.2-1.5-9.4-17.8-10.4-17.8-.5 0-3 1.5-5.5 3.4zM312.9 196.2c-9.1 10.8-8.9 8.8-2.1 17 12.4 15.1 17 25.9 15.8 37.2l-.6 6.2 9.1 4.4c8 4 9.2 4.3 10 2.8 2.6-4.7 9.7-12.4 15.1-16.4 8-5.8 14.9-7.8 24.8-7.1l7.6.6 2.2-9.2c1.2-5.1 2.2-9.5 2.2-9.8 0-1.5-13.6-3.1-20.9-2.6-9 .6-17 3.4-24.9 8.7-5.6 3.9-5.7 3.9-6.6 1.7-3.3-8.3-8.2-17.7-11.3-22.1-4.1-5.6-14.2-16.6-15.3-16.6-.4 0-2.7 2.3-5.1 5.2z"/></svg>