<svg version="1" xmlns="http://www.w3.org/2000/svg" width="933.333" height="933.333" viewBox="0 0 700.000000 700.000000"><path d="M321.5 2.6c-48.4 4.9-84.3 14.9-125 34.9-37 18.1-62.8 36.6-92.6 66.4-29.8 29.8-48.3 55.6-66.4 92.6C20 232.2 10.1 264.5 4.3 305c-1.4 9.9-1.7 19.2-1.7 45s.3 35.1 1.7 45c5.8 40.5 15.7 72.8 33.2 108.5 18.1 37 36.6 62.8 66.4 92.6 29.8 29.8 55.6 48.3 92.6 66.4 35.7 17.5 68 27.4 108.5 33.2 18 2.5 72 2.5 90 0 40.5-5.8 72.8-15.7 108.5-33.2 37-18.1 62.8-36.6 92.6-66.4 29.8-29.8 48.3-55.6 66.4-92.6 17.5-35.7 27.4-68 33.2-108.5 1.4-9.9 1.7-19.2 1.7-45s-.3-35.1-1.7-45c-5.8-40.5-15.7-72.8-33.2-108.5-18.1-37-36.6-62.8-66.4-92.6-29.9-29.8-55.6-48.3-92.6-66.4-35.7-17.5-68.1-27.4-108-33.1-10.5-1.5-64.1-2.8-74-1.8zm70 18.9c56.6 7.9 103.6 26.2 149.2 58.2 29.5 20.6 58.2 49.3 78.7 78.3 31.1 44.1 51.3 94.1 58.1 144 .8 6.3 1.7 12.5 1.9 13.6.2 1.9-.7 2.5-7.7 4.8-20.3 6.7-35.2 22.9-40.6 44.1-1 4-1.2 4.1-7 5.3-8.2 1.7-20.5 8.1-27.2 14.1-4.2 3.7-12 13.5-13.5 16.9 0 .1-1.9-.4-4.1-1.2-19.2-6.8-41.9 2.5-50.8 20.8l-2.7 5.6H508v-91.8l6.7-1.2c19.8-3.4 38-13.5 52.9-29.3 17.2-18.3 25.6-39.7 25.6-65.2 0-20.1-4.9-36.8-15.7-53.1-13.5-20.3-34.1-34.6-58.1-40.6-13.1-3.2-32.4-3-45.4.4-18 4.8-31.6 12.6-44.4 25.4-12.8 12.8-20.6 26.4-25.4 44.4-2.1 8-2.5 11.7-2.5 23.5s.4 15.5 2.5 23.6c7.4 27.8 25.5 49.8 51.4 62.8 8.2 4.1 25.2 9.1 31 9.1h3.4v92H347v-41h63v-17h-35v-82H118v82H90v17l27.7.2 27.8.3.3 20.3.2 20.2-59.2-.2-59.3-.3-2.1-10.5c-4.7-23-5.9-36.9-5.8-66 0-35 2.6-55.3 10.9-85.5C51.9 185.7 99.8 119.2 167 74.3c43-28.8 95.5-47.9 146-53.2 5.8-.6 12.1-1.3 14-1.5 8.1-.9 54.1.4 64.5 1.9zM517.7 163c27.3 7.6 48.2 28.7 55.5 55.9 1.5 5.7 2 10.6 2 19.6 0 13.7-2 23.2-7.2 33.6-8.8 17.5-21 29.4-38.5 37.5-6 2.8-17.5 6.3-20.7 6.4-.5 0-.8-5.5-.8-12.2v-12.3l24.7-24.7 24.8-24.8-6.5-6.5-6.5-6.5-18.2 18.2-18.3 18.3V233h-18v25.5l-16-16-16-16-6 6c-3.3 3.3-6 6.4-6 7 0 .5 9.9 10.9 22 23l22 22v15.7c0 18.2.9 17-10.8 14.3-8.5-2-15.3-5-23.5-10.2-35.8-22.8-47-69.1-25.5-105.8 5.3-9 18.3-22 27.3-27.3 7.5-4.4 19-8.6 27.7-10.1 7.8-1.5 24.2-.5 32.5 1.9zM357 335.5V368H135v-65h222v32.5zM680 367c-1.1 19.4-3.4 37.8-6.6 51.8l-1.6 7.2H593.1l2.4-7.1c3.2-9.2 6.3-14.5 12-20.1 8.5-8.4 19.4-12.8 32.1-12.8h7.1l1.1-10.2c2-19 10.4-30.6 26.9-37.3l5.8-2.4.3 5.7c.2 3.1-.1 14.5-.8 25.2zm-351 38.5V426H163v-19.8c0-10.9.3-20.2.7-20.5.3-.4 37.7-.7 83-.7H329v20.5zm246.5 11.9c2.8 1.3 6.7 3.7 8.9 5.5l3.9 3.1h-42.7l3-3.1c7.2-7.6 17.8-9.8 26.9-5.5zm90.5 28.9c0 1.7-5.1 16.8-9.3 27.5-2.3 6-3.8 8.4-5.2 8.7-1.1.2-129.6 12.4-285.5 27s-284.7 26.7-286.2 27c-2.5.4-3.2-.4-9.4-10.2-8.7-13.9-16.1-28-22.5-42.8-5-11.7-13.9-35.7-13.9-37.6 0-.5 120.7-.9 316-.9 260.1 0 316 .2 316 1.3zm-23 56.4c0 1.4-12.3 22.4-18.7 31.8l-6.8 10L424 597.7c-106.4 29.3-195.7 53.7-198.5 54.4l-5 1.1-14-6.7c-7.7-3.7-13.5-6.9-13-7.1.8-.3 202.7-58.8 224.3-65 3.2-1 5.2-2.1 5.2-3 0-.8-1-4.8-2.2-8.9-1.9-6.6-2.4-7.4-4.2-6.9-1.1.4-56.8 16.6-123.9 36L170.8 627l-8.6-5.6c-4.8-3.1-12.2-8.4-16.6-11.7-7.2-5.7-7.7-6.2-5.5-6.9 1.3-.4 26.9-5.3 56.9-10.9 30-5.6 54.6-10.2 54.7-10.3.7-.5-3.3-17.6-4.1-17.6-.6 0-29.4 5.4-64.1 12l-63 11.9-9-9.2c-8.1-8.3-22.1-24.6-21.3-24.8 1.5-.3 546.2-51.7 549.1-51.8 2-.1 3.7.2 3.7.6zm-48.8 70.1c-1.7 2.1-7.9 8.5-13.9 14.3-38.4 37-82.6 63.2-134.2 79.4-34.6 10.8-79.1 16.1-115.2 13.6-27.3-1.8-51.5-6-71.4-12.3-9.4-2.9-9.8-3.2-7-4 4.9-1.5 342.9-94.6 343.8-94.7.5-.1-.5 1.6-2.1 3.7z"/><path d="M229.6 91.2c-9.8 7.5-16.7 19-18.3 30.4-.3 2.4-.8 4.4-1 4.4-.2 0-2.2-.9-4.4-2.1-6.5-3.3-17.6-5.7-28.4-6l-9.9-.4.2 5c.1 2.7.5 6.7.8 8.7l.6 3.8h5.6c13.8.1 27.1 4.9 33.6 12.1 2.4 2.7 4.9 4.9 5.4 4.9.6 0 4.1-1.1 7.9-2.5l6.8-2.5v-12.3c0-11.8.1-12.5 3.3-18.9 2.2-4.5 4.7-7.8 7.5-9.9 2.3-1.8 4.3-3.3 4.4-3.4.3-.2-7.8-15.5-8.2-15.5-.2 0-2.8 1.9-5.9 4.2zM258.2 154.1l-5 6.2 6 7.1c8.3 9.9 13.1 20 13.1 28 0 3.3-.2 6.7-.4 7.5-.3.9 2.2 2.6 7.4 4.9l7.8 3.6 1.6-2.5c3.6-5.3 13.1-13.6 18.8-16.3 4.7-2.2 7.4-2.8 12.7-2.8 3.7 0 7.2.3 7.7.6.6.4 1.9-2.4 3.1-6.5 1.2-3.9 2.4-7.7 2.7-8.5.8-2.1-7.3-3.7-16.2-3.1-8.9.5-16.6 3.1-23.5 7.7-2.5 1.6-4.8 3-5.2 3-.3 0-1.4-2.2-2.2-4.8-2.8-8.4-18.8-30.2-22.1-30.2-.7 0-3.5 2.8-6.3 6.1z"/></svg>