<svg version="1" xmlns="http://www.w3.org/2000/svg" width="705.333" height="705.333" viewBox="0 0 529.000000 529.000000"><path d="M141.6 31c-1.9 1.7-4.5 5.1-5.7 7.6-3.3 7-2.4 17.6 2.3 27.7l3.6 7.5-4.5 4.3c-5.9 5.8-8.3 10.6-8.3 16.9 0 5.2 2.4 11.5 5.4 13.9 3.5 2.9 9.4-1.1 6.8-4.7-5.6-7.8-5.3-12.8.9-19 2.3-2.2 5.4-4.6 7-5.2 4.1-1.7 4.6-4.4 1.5-8.8-3.4-5-7.6-14.4-8.3-18.6-.9-5.8.5-10.5 4.8-15.1 4.1-4.4 4.7-6.3 2.7-8.3-2-2-4.5-1.4-8.2 1.8zM262.3 95.4c-2.8 1.3-7.5 4-10.5 5.8-7.1 4.6-9.7 5.1-17.4 3.3-9.3-2.1-11.9-1.9-18.6 1.7-7.1 3.8-12.8 10-16.8 18.3-5.3 11.2-4.8 17.7 1.3 16.1 1.7-.4 2.7-1.7 3.6-4.8 2.3-7.7 6.4-14.8 10.8-18.9l4.3-3.9 13.7.2 13.8.3 13-6.8c7.2-3.8 13.4-7.2 13.9-7.7.6-.6.5-1.9-.2-3.5-1.5-3.2-4.1-3.2-10.9-.1zM12.3 110.1c-1.9 1.9-1.6 5.7.5 6.8 1 .5 9.9 2.1 19.7 3.5 9.9 1.4 21.2 3.5 25 4.5 8.8 2.5 16.5 5.7 16.5 7 0 .5-.9 3-2 5.6-1.6 3.7-1.8 5.1-.9 6.7 1.1 2 1.7 2 11.7 1.4 5.7-.4 11.3-1.1 12.3-1.7 2.3-1.2 2.4-3.7.3-6-1.4-1.6-2.6-1.7-7.7-1.2-6 .6-6 .6-5.2-1.8 2-6.4 1.4-8-5-11.5-8.4-4.6-20.7-7.9-40.2-10.9-9.3-1.4-18.4-2.8-20.3-3.1-2.2-.3-4-.1-4.7.7zM139.6 120.4c-3.2 1.1-6.4 3-7 4.1-.6 1.1-2.3 3.4-3.8 5.2-8.1 9.7-12.2 22.3-12.2 36.8 0 11.8 1.4 17.2 5.9 24.1 11.4 17.4 39.9 19.4 54.9 3.9 6.3-6.4 8.8-13.5 9.4-26.1.7-15.8-3-27.1-12-36.9-5.5-6.1-12.9-10.2-20-11.1-2.7-.4-5.1-1.1-5.4-1.5-.8-1.3-3.1-.9-9.8 1.5zm20 11.2c6.4 3 12.7 9.8 16.2 17.2 2.4 5.1 2.7 6.9 2.7 16.7 0 10-.2 11.5-2.7 16.1-3.9 7.4-10.7 13-17.5 14.5-13.8 3.1-28.8-5.4-32.5-18.5-3-10.8-.3-27.5 6.1-37.4 7.9-12.3 15.2-14.6 27.7-8.6zM208.5 186.9c-5.6 2.5-7.1 4.5-5.7 7.6 1.3 2.8 3.5 3.1 7.2 1 3.4-2 9.1-1.8 11.6.3 1.2.9 4.6 5.1 7.7 9.3 6.2 8.4 11.5 13.5 16.3 15.5 5.1 2.2 8.3 1.8 9.6-1.1 1.4-3-.1-5.1-4.1-6-4.1-.9-9.5-5.8-14.8-13.3-2.5-3.7-5.8-8-7.2-9.6-5.1-5.6-13.2-7.1-20.6-3.7zM93.4 197.9c-5.2 2.3-8.8 6.8-15.4 18.9-7.6 13.8-10.5 17.7-15.6 21.3-3.7 2.5-4.5 3.6-4.2 5.7.2 2 1 2.8 2.6 3 6.9 1 16.2-8.4 24.1-24.2 6.6-13.2 10.3-17.2 16.6-18.2 5.2-.7 7.3-3.1 5.5-6.4-1.4-2.6-7.9-2.7-13.6-.1zM148 218.8c-2.4 1.1-4.3 3.2-5.9 6.6-2.3 4.6-2.5 6-2.7 24.5-.1 10.8-.6 21-1.2 22.6-1.4 4.6-4.8 11-6.6 12.4-2.5 2.1-2 6 .9 7.3 2.2 1 2.9.8 4.9-1.1 3.7-3.5 7.6-11.5 9.1-18.9 1-4.6 1.4-12.1 1.3-22.8-.2-17.6.4-20.5 5.2-23.2 3.6-2 4.2-6.5 1.1-8.2-2.4-1.3-2-1.3-6.1.8zM241.8 260.2c-1.7 1.4-6.7 14.6-8.8 23.5l-1.2 5.3H218c-15.3 0-27.2 1.7-39.2 5.7-8.7 2.9-10.6 4.7-8.2 8.1 1.9 2.8 3.1 2.8 11.6-.3 3.8-1.4 10.6-3.1 15.1-3.9 10.9-1.9 29.8-2.9 31.6-1.8 1.1.8 1.1 2.4.2 9.2-.6 4.6-1.1 10.4-1.1 13 0 2.6-.3 6.2-.7 8l-.6 3.3-16.2-.7c-14.2-.6-16.5-.5-17.9.9-2 2.1-2 3.9 0 5.9 1.3 1.3 4.4 1.6 17.9 1.6h16.3l.7 14.7c.4 8.2 1.2 22.4 1.9 31.7l1.1 16.9-16-.6c-19.8-.7-31.5-2.7-47.4-8l-12.3-4.1-1.9 2.3c-1.4 1.7-1.6 2.8-.9 4.1 1.6 3 22.8 9.9 35.6 11.6 2.8.3 5.7 1 6.4 1.4 2.1 1.3 3 14.8 3.6 52.5.4 19.8 1.1 36.8 1.6 37.8 1 2 4.8 2.3 6.6.5 2.1-2.1 1.1-63.6-1.4-84.6l-.6-5.2h26.9l.6 3.7c.3 2.1.9 12.9 1.3 24.1.6 18.3.9 20.4 2.6 21.3 1.2.7 2.5.6 3.9-.2 2.2-1.1 2.2-1.3 1.6-25l-.5-23.9h3.1c1.8 0 15.1-.9 29.7-2 32.6-2.4 69-2.6 108-.5 15.7.9 29.9 1.8 31.6 2.1l3 .4-1.3 9.3c-1.9 13.8-3.6 39.4-2.9 43.3.5 2.5 1.3 3.5 3.2 4 4.5 1.2 5-.4 5.7-17.8.4-9 1.4-21.3 2.2-27.3.8-6.1 1.5-11.1 1.5-11.1 0-.1 10.3-.1 22.9 0l22.8.1.7 7.4c.9 11.3.7 46.6-.4 65.5-.9 14.5-.9 17.2.4 18.4 1.8 1.8 6.3.9 7-1.6 2.2-7.7 3.1-80.1 1-87.8-.5-2-.1-2.2 6.8-2.8 12.2-1.1 30.2-3.8 32.1-4.8.9-.5 1.7-2 1.7-3.3 0-4.2-2.6-4.6-17.1-2.5-17.3 2.6-51.3 4.3-65.6 3.5-10.9-.7-11.3-.8-10.8-2.8 1.4-6.8 4.6-32.8 5.7-46.8l1.2-16.2 11.6.6c6.3.4 12.9.9 14.6 1.3 3.5.7 6.4-1.5 6.4-4.6 0-3-3-3.9-14.2-4.5-5.6-.3-12.1-.8-14.3-1.1l-4-.4.3-15.2c.2-10.5.7-15.5 1.5-16 2-1.3 18.8-.9 25.9.7 3.7.7 9.8 2.7 13.7 4.3 6.3 2.7 7.2 2.8 9.1 1.5 3.8-2.6 2.2-5.5-5-9-9.8-4.8-18.5-6.6-32.7-6.5H433v-11c0-11.9-.9-14.8-4.3-14.8-4.2 0-4.7 1.7-4.7 15.2 0 7-.2 12.8-.5 12.8-.2 0-8.7 1.3-18.7 3-27.5 4.4-43.1 6-66.3 6.6-24 .7-32.8 0-70.8-5.3l-26.8-3.8.6-3.5c.6-3 5-17.2 7-22.1.7-1.8-1.8-4.9-3.9-4.9-.7 0-1.9.6-2.8 1.2zm20.7 39.8c7.2 1.1 20.7 3.1 30 4.5 25.4 3.8 47.1 5 66.2 3.6 17.7-1.2 26.2-2.6 48.7-7.6 8.5-1.9 15.8-3.5 16.1-3.5.3 0 .5 6.7.5 15 0 14.7 0 15-2.2 15.5-4.7 1-27.4 1.5-105.5 2.1l-80.3.6v-3.9c0-4.3 1.7-21.2 2.6-26.1l.6-3.2 5.2.6c2.8.3 11 1.4 18.1 2.4zm54 37c29.6 2.2 39.4 2.3 72.3.5 18.3-1 33.5-1.5 33.9-1.1 1.4 1.4-4.3 62.6-6 64.3-.3.2-15.5-.5-33.8-1.7-62.8-3.8-65.4-3.8-123.3.6-10.9.8-20 1.3-20.2 1.1-.7-.6-3.4-43.4-3.4-53.4V337l16.3-.3c37.1-.6 51.9-.6 64.2.3z"/></svg>