<svg aria-label="Twitter" role="img" version="1.1" viewBox="0 0 512 512" xmlns="http://www.w3.org/2000/svg">
 <path d="m76.8 0c-42.55 0-76.8 34.25-76.8 76.8v358.4c0 42.55 34.25 76.8 76.8 76.8h358.4c42.55 0 76.8-34.25 76.8-76.8v-358.4c0-42.55-34.25-76.8-76.8-76.8h-358.4zm251.3 119.4a72 72 0 0 1 55.88 21.57c16-3 31-9 45-17-6 17-17 31-32 40 14-2 28-6 40-12-9 15-21 27-35 37a199 199 0 0 1-309 179c37 6 76-5 105-29-30-1-57-21-67-50 11 2 22 2 32-1-32-7-55-36-56-69 10 5 21 7 32 7a68 68 0 0 1-22-94c35 45 89 71 145 74a72 72 0 0 1 66.12-86.57z"/>
</svg>
