<svg xmlns="http://www.w3.org/2000/svg" aria-label="Auth0" role="img" viewBox="0 0 141 34" id="esri-18globelogo-tag-right-1C"><g fill-rule="evenodd"><path d="m86.582 26.848h4.453v-17.817h-4.453z"></path><path d="m46.08 11.925c2.784 0 4.492 1.635 4.531 4.232h-9.134c.335-2.562 1.969-4.232 4.603-4.232zm4.514 9.916c-1.049 1.103-2.395 1.889-4.326 1.889-2.489 0-4.493-1.598-4.791-4.231h13.586v-1.225c0-6.2-3.376-9.688-8.354-9.688-5.38 0-9.685 3.747-9.685 9.353 0 5.605 4.305 9.356 9.685 9.356 2.455 0 4.766-.763 6.695-2.644zm10.682-7.799c0-1.337 1.412-1.893 2.601-1.893 1.512 0 2.623.625 3.476 1.804l2.833-2.83c-1.467-1.831-3.899-2.537-6.2-2.537-3.6 0-7.165 1.78-7.165 5.754 0 6.794 9.615 3.897 9.615 7.571 0 1.41-1.67 2.041-2.969 2.041-1.889 0-3.074-.922-4.223-2.18l-2.877 2.876c1.807 1.958 4.143 2.647 6.84 2.647 3.637 0 7.686-1.485 7.686-5.718 0-6.942-9.617-4.343-9.617-7.535m23.048-5.2c-.514-.145-1.031-.256-1.582-.256-2.341 0-4.308 1.225-5.274 3.264h-.072v-2.819h-4.454v17.818h4.454v-9.542c0-.964.592-4.491 4.789-4.491.645 0 1.289.128 1.965.289zm9.679 1.16h.175c.149 0 .314-.009.314-.187 0-.176-.165-.186-.314-.182h-.175zm-.242-.572h.507c.316 0 .463.142.463.397 0 .228-.133.339-.314.361l.344.557h-.255l-.328-.538h-.175v.538h-.242zm.442 1.613c.525 0 .947-.424.947-.947 0-.524-.422-.948-.947-.948-.523 0-.947.424-.947.948 0 .523.424.947.947.947zm0-2.101c.634 0 1.152.518 1.152 1.154 0 .633-.518 1.151-1.152 1.151-.635 0-1.151-.518-1.151-1.151 0-.636.516-1.154 1.151-1.154zm-5.432-8.897c1.693 0 3 1.226 3 2.848 0 1.623-1.307 2.849-3 2.849s-2.921-1.346-2.921-2.849 1.228-2.848 2.921-2.848m28.173 19.928h1.014l.247-1.794h1.917l.137-.936h-1.917l.13-.935h2.073l.13-.936h-3.087zm-1.671-2.892c-.041-.182-.116-.339-.223-.472-.109-.132-.245-.234-.41-.308-.164-.073-.355-.111-.572-.111-.216 0-.418.038-.604.111-.187.074-.351.176-.494.308-.143.133-.261.29-.354.472-.094.182-.155.379-.185.591-.031.217-.025.415.019.595.043.179.118.336.224.467.106.133.242.236.406.309.165.074.356.111.572.111.217 0 .418-.037.605-.111.185-.073.35-.176.494-.309.143-.131.261-.288.353-.467.093-.18.156-.378.186-.595.03-.212.024-.409-.017-.591zm1.024-.41c.082.299.098.633.046 1.001s-.16.702-.325 1.001-.373.554-.624.764c-.251.209-.537.372-.855.484s-.657.169-1.017.169c-.359 0-.683-.057-.971-.169s-.528-.275-.718-.484c-.191-.21-.327-.465-.41-.764-.082-.299-.097-.633-.045-1.001s.161-.702.328-1.001.375-.553.624-.763.533-.371.855-.484c.32-.113.66-.17 1.02-.17.359 0 .682.057.968.17s.524.274.715.484c.19.21.327.464.409.763z"></path><path d="m112.77 2.367h-1.313l.123-.897h3.64l-.124.897h-1.313l-.519 3.704h-1.014z"></path><path d="m118.404 6.071h1.014l.643-4.601h-1.013l-.24 1.716h-1.97l.24-1.716h-1.014l-.643 4.601h1.015l.279-1.988h1.969z"></path><path d="m123.958 5.136h-2.23l.13-.936h1.995l.13-.936h-1.995l.124-.858h2.113l.129-.936h-3.126l-.643 4.601h3.243z"></path><path d="m114.605 11.115c-.041-.141-.105-.258-.191-.351-.087-.093-.189-.17-.309-.23-.119-.061-.242-.113-.367-.157-.126-.043-.251-.082-.374-.117-.123-.034-.231-.074-.325-.12-.093-.045-.164-.101-.214-.169-.05-.067-.068-.152-.055-.256.012-.087.045-.16.097-.221s.113-.11.186-.146c.071-.037.147-.064.23-.082.082-.017.16-.026.234-.026.126 0 .255.025.39.075.134.05.236.127.305.231l.8-.76c-.169-.174-.369-.297-.602-.371-.231-.074-.477-.111-.737-.111-.226 0-.448.032-.669.095-.222.062-.423.157-.605.283-.181.125-.335.281-.458.467-.124.187-.203.403-.237.65-.035.256-.01.461.074.618.085.155.2.281.348.376.147.096.31.172.487.228.178.056.343.113.494.169.152.056.277.124.374.205.098.08.135.189.114.328-.013.082-.044.153-.094.214s-.112.111-.186.149c-.073.039-.154.069-.24.088-.087.02-.171.03-.254.03-.169 0-.326-.039-.47-.114-.146-.076-.261-.183-.348-.322l-.839.793c.195.204.414.351.656.442.243.091.514.136.813.136.238 0 .47-.03.692-.091.224-.06.425-.154.605-.279.179-.126.331-.284.455-.475.123-.19.202-.413.237-.668.03-.2.024-.37-.017-.511m3.556.959c-.174.087-.364.13-.572.13-.182 0-.348-.037-.497-.111-.15-.073-.274-.176-.37-.309-.098-.132-.167-.287-.208-.468-.042-.179-.047-.378-.017-.594.03-.212.092-.409.186-.591.092-.182.208-.339.343-.471.137-.133.292-.236.465-.309.174-.074.356-.111.546-.111.191 0 .353.033.487.098.135.065.246.158.332.279l.871-.637c-.079-.126-.174-.231-.29-.318-.115-.087-.237-.156-.367-.208s-.262-.09-.399-.114-.27-.036-.4-.036c-.36 0-.7.057-1.02.17-.32.112-.606.274-.855.484s-.457.464-.624.763-.276.633-.328 1.001c-.051.368-.037.702.046 1.001.082.299.219.553.409.763.191.211.43.372.718.485.288.112.612.168.972.168.316 0 .633-.065.948-.195.316-.13.592-.331.826-.604l-.754-.63c-.126.156-.275.277-.448.364"></path><path d="m121.661 8.421h-1.015l-.642 4.601h1.014z"></path><path d="m125.544 12.086h-2.229l.13-.935h1.995l.13-.936h-1.995l.123-.858h2.113l.129-.936h-3.126l-.643 4.601h3.243z"></path><path d="m130.779 13.022.644-4.601h-1.014l-.449 3.198h-.013l-1.508-3.198h-1.377l-.643 4.601h1.014l.455-3.275h.012l1.553 3.275z"></path><path d="m133.217 10.131c.093-.182.208-.339.344-.471.136-.133.292-.236.464-.309.174-.074.356-.111.546-.111.191 0 .354.033.488.098s.245.158.332.279l.87-.637c-.077-.126-.174-.231-.289-.318s-.238-.156-.368-.208c-.129-.052-.262-.09-.399-.114s-.269-.036-.399-.036c-.36 0-.701.057-1.021.17-.32.112-.605.274-.854.484s-.457.464-.624.763-.277.633-.329 1.001c-.051.368-.037.702.046 1.001.082.299.219.553.41.763.19.211.429.372.717.485.288.112.613.168.972.168.316 0 .633-.065.949-.195s.591-.331.825-.604l-.753-.63c-.126.156-.276.277-.449.364-.174.087-.364.13-.572.13-.182 0-.348-.037-.497-.111-.149-.073-.273-.176-.37-.309-.098-.132-.167-.287-.208-.468-.041-.179-.047-.378-.017-.594.03-.212.092-.409.186-.591"></path><path d="m140.228 9.357.131-.936h-3.126l-.643 4.601h3.243l.13-.936h-2.23l.13-.935h1.995l.13-.936h-1.995l.124-.858z"></path><path d="m115.669 25.351h-.013l-.533-3.028h-.942l-1.378 2.951h-.013l-.318-2.951h-1.105l.721 4.602h.871l1.456-3.185h.013l.572 3.185h.902l1.99-4.602h-1.028z"></path><path d="m121.421 24.039h-1.97l.241-1.716h-1.013l-.644 4.602h1.014l.279-1.989h1.969l-.279 1.989h1.013l.644-4.602h-1.014z"></path><path d="m123.198 26.925h3.243l.13-.937h-2.229l.131-.935h1.995l.129-.936h-1.994l.123-.857h2.112l.13-.937h-3.126z"></path><path d="m130.233 24.007c-.064.069-.14.12-.227.152-.086.032-.181.053-.282.059-.102.007-.199.009-.289.009h-.598l.142-1.045h.664c.09 0 .182.005.276.019.093.013.174.038.243.074.069.037.123.09.162.16.039.069.05.163.033.28-.017.125-.058.222-.124.292zm1.177-.286c.039-.269.024-.493-.046-.673-.069-.18-.176-.322-.318-.429-.143-.106-.317-.181-.52-.227-.204-.046-.423-.069-.656-.069h-1.781l-.644 4.602h1.015l.253-1.839h.501l.708 1.839h1.215l-.897-1.944c.334-.06.601-.205.8-.432.198-.227.322-.503.37-.828z"></path><path d="m131.888 26.925h3.243l.13-.937h-2.229l.13-.935h1.995l.13-.936h-1.995l.123-.857h2.112l.13-.937h-3.126z"></path><path d="m102.555 28.258h.75v-28.213h-.75z"></path><path d="m137.657 23.213h.158c.135 0 .285-.009.285-.17 0-.159-.15-.167-.285-.164h-.158zm-.219-.518h.458c.287 0 .42.128.42.359 0 .207-.121.306-.284.326l.31.504h-.23l-.297-.488h-.158v.488h-.219zm.4 1.457c.473 0 .856-.382.856-.855 0-.474-.383-.857-.856-.857s-.856.383-.856.857c0 .473.383.855.856.855zm0-1.897c.573 0 1.042.469 1.042 1.042s-.469 1.04-1.042 1.04-1.04-.467-1.04-1.04.467-1.042 1.04-1.042zm-107.005-.729-.222.866c-.156.588-.678 1.981-.951 2.543.104-.759.195-2.728.169-3.123.183.055.574-.168.639-.391s-.645-.567-.645-.567c.013-.897-.064-2.015-.197-3.089.163-.262.328-.517.497-.749-.027-.614-.108-1.212-.212-1.802.142.047.274.085.369.086.324.005.323-.217.219-.341-.066-.081-.375-.273-.735-.48-.539-2.305-1.648-4.389-3.182-6.087.611.23 1.39.548 2.008.884.47.591 1.813 1.917 2.53 5.63.646 3.343-.067 5.884-.287 6.62zm-2.538-1.288c.225-.466.472-.961.739-1.454.07.627.119 1.237.15 1.789-.275-.121-.578-.23-.889-.335zm.81 5.625c-.137.29-.489.788-.724 1.024-.357-.145-.894-.295-1.455-.429.09-.107.187-.209.274-.319.307-2.055-.387-2.713.482-4.593.06-.131.127-.275.196-.425.478.136.929.283 1.319.442.05.705.045 3.122-.092 4.3zm-4.376 4.262c.027-.466.046-1.056.061-1.598.557-.432 1.083-.904 1.567-1.416.626.073 1.252.178 1.633.274-.847 1.072-2.016 1.965-3.261 2.74zm-1.252-24.103c-.309-.196-.694-.123-.534.222.061.133.296.359.489.586-1.129-.312-4.128-.548-5.557-.417-.932-1.049-1.995-2.321-3.273-3.164 5.719-.356 10.857 2.01 13.127 4.789-.756-.393-2.388-.953-3.052-1.101-.357-.365-.809-.665-1.2-.915zm.378 24.575c-.328.215-1.904.93-2.522 1.129-.947-1.038-2.017-2.414-2.792-3.663.966-.405 2.453-.767 3.829-.939.125.393.285.806.508 1.252.218.437.471.758.742.977.098-.061.188-.132.284-.195-.007.48-.02.968-.049 1.439zm-7.672 1.725s-1.835-1.215-2.298-1.682c.919-.764 2.405-1.669 3.579-2.162.459.722 1.975 2.869 2.583 3.561-1.102.192-2.644.336-3.864.283zm-3.561-.354c.177-.232.356-.52.578-.716.534.354 1.108.761 1.565 1.022-.705-.079-1.531-.096-2.143-.306zm-1.132-.358c-4.63-1.451-8.059-5.351-9.282-9.443-.712-2.379-.97-5.013-.746-7.406.064.01.213.082.435.019.154-.106.705-.492 1.096-.833.005.045.014.102.02.151-.263.994-.425 2.03-.458 3.1.424.447.92 1.187 1.471 1.952-.355.264-1.035.735-1.195.849-.47.334-.465.861-.13 1.161.184.165.563.097.7-.012.41-.326.751-.587 1.22-.879.173.449.334.854.493 1.241-.201.216-.344.499-.392.914-.154 1.341 1.12 2.392 2.195 2.7.04.012.069.016.107.026.057.086.109.168.169.256-.557.433-.938.875-1.199 1.216-.151.197-.322.492-.183.551.14.057.611 0 .822-.039.534-.103.945-.694 1.314-.91.443.61 1.163 1.396 1.912 2.15.033.137.063.281.101.402.143.461.335.919.566 1.369.54.25 1.101.459 1.676.641-.254.262-.623.691-.712.824zm-8.769-21.003s.07 1.213.129 2.097c0 0-.894 1.015-1.349 1.821.181-1.652.569-2.503 1.22-3.918zm.98-1.645c1.502-2.103 3.542-4.149 5.403-5.171-.018.457.098 1.792.25 3.081-.652.065-1.297.146-1.937.241-1.502 1.276-2.717 2.872-3.563 4.677-.134-1.205-.204-2.211-.153-2.828zm6.19 2.041c.021-.029.044-.053.065-.082.267 1.352.587 2.472 1.013 4.025-1.604.707-4.441 2.457-5.693 3.401-.227-.575-.463-1.389-.674-2.227.285-.843.867-1.435 1.689-1.516 1.404-.141 2.609-2.23 3.6-3.601zm10.329-1.252c-.011.017-.032.03-.045.046-.467-.821-.981-1.592-1.575-2.415 1.152-.07 2.57-.009 3.86.124-1.16.415-1.672 1.434-2.24 2.245zm-6.103 16.747c.336-.875.596-1.523.692-2.162.651 1.096 1.428 2.287 2.03 3.22-.937.455-2.027 1.155-3.057 1.928.071-1.186.095-2.362.335-2.986zm-.878-5.182c-.08.039-.166.085-.249.126-1.261-.351-2.042-.546-3.725-.892-1.139-.233-1.181-.172-2.462.201-.182.053-.358.101-.528.151-.171-.436-.339-.888-.51-1.375 1.644-1.265 3.3-2.327 5.517-3.415.571 1.706 1.389 3.986 1.957 5.204zm-.952-5.649c1.282-.607 2.63-1.107 4.073-1.471-.01.38-.052.742-.209 1.033-.224.418-.121 1.634.153 2.031.864 1.257 2.298.558 3.378 1.011.494.207.824.55 1.102.959-2.258.143-4.473.669-6.528 1.615-1.056-2.242-1.969-5.178-1.969-5.178zm9.843 10.458c-.405.043-.809.095-1.163.149-.88.138-2.015.433-3.071.827-.607-.965-2.231-3.308-3.053-5.077 1.651-.811 3.956-1.491 6.608-1.652.217.377.459.754.791 1.094.865.885-.506 2.154-.112 4.659zm-7.563-18.17c.871-.189 1.766-.346 2.702-.421.73.873 1.389 1.799 2 2.906-.921.446-2.149.787-2.648 1.502-.208.297-.259.701-.266 1.138-1.633.384-3.071.892-4.436 1.471-.518-1.524-.973-3.042-1.286-4.396 1.483-1.415 3.219-1.645 3.934-2.2zm2.584-5.317c-1.392-.042-2.21.137-3.033.297-.247-.063-.71.003-.736.541 0 .288.092.511.274.643.183.131 1.709 1.258 2.83 2.451-.537.059-1.122.158-1.72.282-.669-1.447-2.821-.132-4.249-.075-.168.007-.329.029-.494.04-.156-1.207-.269-2.459-.241-3.341 1.852-1.048 5.433-1.822 7.866-1.86l.426-.011c.358-.003.386-.288.05-.334-3.022-.412-5.64.199-8.328 1.312-2.798 1.179-6.358 3.893-8.53 9.014-.507 1.427-2.538 8.232 1.07 14.073 2.929 4.74 6.7 6.995 11.313 7.64 4.604.641 7.102.084 10.014-1.209 6.809-3.022 12.009-14.369 6.808-22.594-2.053-3.797-7.432-7.126-13.32-6.869z"></path></g></svg>