<svg xmlns="http://www.w3.org/2000/svg" width="200" height="46"><path fill="#131b28" d="M85.5 18.5L84.2 23l1.3-4.5zM92.1 28.3h-1.4H92zM91.7 35.1h-8.4 8.4zM93.5 28.3h-1.4 1.4zM92.5 34.5L94 29l-1.5 5.6zM123.6 8.7L121 21.6l2.7-13zM116.6 8.7l-2.1 9.6 2-9.6z"/><path fill="#131b28" d="M123.1 8h-5.8c-.4 0-.7.4-.7.7l-2.1 9.6-2.1 9.6c0 .4-.4.6-.7.6h-4.2c-4 0-3.6-2.8-2.8-6.7v-.1l.1-.5V21l.3-1 .2-1 .2-1.2 1-4.6.9-4.6c0-.3-.2-.6-.5-.6h-6c-.4 0-.7.3-.7.6l-1.3 6.1-1.3 6.2-.2.5c-1.4 6.8-1 13.3 7 13.5h13c.3 0 .7-.2.7-.5l2.8-13 2.7-12.8c0-.3-.1-.6-.5-.6zM146.5 28.6c.4 0 .6.3.5.6l-.6 2.8M145.9 34.7l.5-2.7-.5 2.7zM145.2 35.3zM130.9 25c0-.3.3-.8.6-.8h-.7c-.3 3.3 0 .8 0 .8zM134.9 35.4h-.1z"/><path fill="#131b28" d="M146.5 28.6c.4 0 .6.3.5.6l-.6 2.8v.4M137.7 35.4zM136.2 35.4zM135.8 35.4h-.2.2zM135.3 35.4zM136.1 35.4h-.3.3zM137.6 35.4h-1.4 1.4zM145.2 35.3zM145.9 34.7l.5-2.3-.5 2.3zM135.6 35.4h-.3zM134.8 35.4h-.4zM135.2 35.4h-.3zM49.4 25l1-4-1.1 4.7-1 4.7.9-4.2.2-1.1zM60.3 8H54c-.4 0-.7.3-.7.6l-.7 2.7L52 14c0 .3.2.6.5.6h6.5c.3 0 .6-.3.7-.6l.6-2.7.6-2.7c0-.3-.2-.6-.5-.6zM59 17l-2 8.7 2-8.7zM40.2 46zM51.2 17l-.9 4 1-4z"/><path fill="#131b28" d="M58.4 16.4H52c-.4 0-.7.3-.8.6l-.9 4-.9 4-.2 1.2-1 4.2-.8 4-.3 1.2s-1.2 3.6-3.3 3.6h-2c-.3 0-.6.2-.7.5l-.7 2.8-.7 2.9c0 .3.2.6.5.6h5.3c5.1 0 7.8-2.8 9.5-11l2-9.3 2-8.7c0-.3-.2-.6-.6-.6zM150.7 35a.5.5 0 0 1-.5-.5l4.9-23M157.5 34.5l2-9.8-2 9.8z"/><path fill="#131b28" d="M150.3 34.8v-1l2.4-10.8-2.5 11.5c0 .3.2.5.5.5h.6c-.4 0-1 0-1-.2zM157 35a3 3 0 0 1-.8 0h.6c.3 0 .6-.2.7-.5v-.6c0 .3-.2 1-.4 1zM158.5 29.6l.8-4.3-.8 4.3zM177.7 13.1l.3 1.1c0 .4-.1.6-.5.6M157.6 33.9l.9-4.3-1 4.3zM177.5 12l.2 1.1-.2-1.1zM159.3 25.3l.3-1.2.9-4.3-1 5-.2.5zM155.2 11.2l-.2 1-2.3 10.8 2.4-11.4v-.4z"/><path fill="#131b28" d="M178 14.2l-.3-1-.2-1.2-.2-.6c-.5-2-2-3.2-5.4-3.2h-5.2-10.3c-.3 0-.6.2-.7.5l-.2 1.2-.3 1.3-.1.4-2.4 11.4-2.4 10.9v.9l1 .2H157l.5-1.1.9-4.3.8-4.3.1-.6 1-5 1-4.3c0-.3.4-.6.7-.6h15.4c.4 0 .6-.2.5-.6z"/><path fill="#131b28" d="M197.8 4.2h-6.2c-.2 0-.6.2-.8.5l-11 16c-.1.2-.3.2-.4-.1l-.8-3.6c0-.3-.4-.5-.7-.5h-7c-.3 0-.5.2-.5.5l3.2 11v1.2l-1.4 5.3c0 .3.2.6.5.6h7c.2 0 .6-.3.6-.6l1.4-5.3c0-.4.3-.8.5-1L200 4.5c.2-.2 0-.4-.2-.4h-1.9zM142.2 18c0 .3-.4.6-.7.6h-9c-.2 0-.4-.2-.3-.5v-.2c.9-2.3 2.6-3.7 5.8-3.7 3.7 0 4.4 1.7 4.2 3.8zm-2.6-10.3c-11.4 0-14.1 7-15.7 14-1.5 7-1.3 13.7 10.5 13.7h10.8c.3 0 .6-.3.7-.7l.5-2.3V32l.6-2.8c0-.3-.1-.6-.5-.6H136c-4.2 0-5.4-1.1-5-4.4h17a.7.7 0 0 0 .6-.6c2.6-9.5 1.8-15.9-9-15.9zM85.7 18l-.2.5-1.3 4.5-1.2 4.6c-.1.3-.5.5-.8.5h-6.8c-5.1 0-6.4-4-5.1-10C71.5 12.2 74 8.4 79 8c6.9-.6 8.3 4.3 6.6 10zm4.6 9.8s3.2-7.8 4-12.3c1-6-2-14.6-13.7-14.6-11.5 0-16.5 8.3-18.4 17.3-2 9 .6 17 12 17h17.5c.4 0 .7-.3.8-.7L94 29c0-.3-.2-.6-.5-.6h-1.4-1.4c-.3 0-.4-.2-.4-.4v-.1z"/><path fill="#131b28" d="M147.4 22.6a.4.4 0 1 1-.8 0 .4.4 0 0 1 .8 0z"/><path fill="#0868ac" d="M2.3 12.5C-1 17.1-.5 23 1.9 28l.2.3.1.3.2.3.3.4v.2l.4.5v.1a19.9 19.9 0 0 0 .5.6A18.4 18.4 0 0 0 5 32.5a23 23 0 0 0 1 1l.2.2a19 19 0 0 0 .5.5h.1l.5.4.2.2.3.3.3.1.4.4h.1l.5.4h.2l.6.5h.2l.5.4.3.1.3.2h.1l.2.1c.2 0 .3.2.5.3h.2a20 20 0 0 0 2.1.8h.2c.2.2.5.2.7.3 15.4 2.8 19.9-9.3 19.9-9.3-3.8 5-10.4 6.2-16.7 4.8l-.8-.2a30.7 30.7 0 0 1-1.5-.5l-.2-.1-.6-.3h-.1l-.6-.3h-.1l-.5-.3-.3-.1-.5-.3-.1-.1-.7-.4-.2-.1-.4-.3-.2-.1a26.7 26.7 0 0 1-1-.8l-.2-.2-.5-.4a24.2 24.2 0 0 1-1-1l-.2-.2-.5-.5a18.7 18.7 0 0 1-1.5-1.7 16.2 16.2 0 0 1-2-16.8"/><path fill="#0868ac" d="M12.2 8.6a11 11 0 0 0-.4 11.3l1 1.7 1.2 1.5.5.5.1.2.6.4.6.6h.2l.6.6.3.2h.1l.5.4.5.2.2.1.3.2.6.3h.2l.5.2.2.1.4.2h.3l.6.2c12 2 14.7-7.2 14.7-7.2-2.5 3.6-7.3 5.3-12.4 4l-.7-.2h-.2a13.7 13.7 0 0 1-1.2-.5h-.1l-.6-.4-.4-.1-.1-.1-.4-.2h-.1l-.5-.4h-.1a17.4 17.4 0 0 1-1-.8h-.1c-2.3-1.8-4-4.3-4.9-7-.9-2.8-.7-6 .8-8.6"/><path fill="#0868ac" d="M20.5 5.8a7 7 0 0 0-.6 6.7c1 2.3 3 4.1 5.4 5l.3.1h.2l.4.2c6.5 1.2 8.3-3.4 8.8-4-1.6 2.2-4.2 2.7-7.4 2A8.4 8.4 0 0 1 26 15l-1.6-1c-2.9-2.2-4.7-6.3-2.8-9.7"/></svg>