<svg xmlns="http://www.w3.org/2000/svg" id="Layer_1" width="200" height="88" x="0" y="0" version="1.1" viewBox="0 0 200 88" xml:space="preserve">
  <style id="style880" type="text/css">
    .st0{fill:#00678f}.st1{fill:#e48d1a}.st4{fill:#989a9d}
  </style>
  <path id="XMLID_3_" fill="#00678f" stroke-width=".5" d="M0 78.7h6.6v-26l10.2 22.7c1.2 2.7 3 3.7 6 3.7 3.3 0 5-1 6-3.7L39 52.7v26h6.6v-26c0-2.5-1-3.7-3.1-4.3-5-1.6-8.4-.3-10 3.1L22.7 74 13 51.5c-1.5-3.4-5-4.7-10-3-1.9.5-3 1.7-3 4.2v26z" class="st0"/>
  <path id="XMLID_4_" fill="#00678f" stroke-width=".5" d="M51.2 57.6h6.6v14.3c0 .8.3 2.6 3.8 2.7H76v-17h6.6v23.3c0 5.8-7.1 7-10.4 7.1h-21v-4.4H72c4.2-.5 3.7-2.6 3.7-3.3v-1.8h-14c-6.5 0-10.7-3-10.8-6.2.2-.3.3-14.6.2-14.7z" class="st0"/>
  <path id="XMLID_5_" fill="#e48d1a" stroke-width=".5" d="M87.6 78.7h19c2.2 0 4.4-.4 6-1.3 2.9-1.3 4.3-3 4.3-5.4v-4.8c0-2-1.6-3.7-4.7-5-1.7-.5-3.7-1-5.7-1h-8c-2.7 0-4-.7-4.2-2.4v-4.2c.3-1.4 1-1.8 3.3-2H117v-4.4H98.6c-2.7 0-4 .2-5.3.6-4 1.2-5.7 3.2-5.7 6.5V59c0 3 3.4 5.5 9 6l2 .2h7.5c2 .2 3 .6 3.6 1.4.4.4.5.8.5 1.2v3.8c0 .5-.3 1-1 1.6a5 5 0 0 1-2.7 1h-19v4.4z" class="st1"/>
  <path id="XMLID_6_" fill="#e48d1a" stroke-width=".5" d="M158 71c0 4.6 3.3 7 10 7.6h19v-4.2h-17.3c-3.9 0-5.3-1-5.3-3.3V48.4H158z" class="st1"/>
  <path id="XMLID_9_" fill="#e48d1a" stroke-width=".5" d="M121 71.3V55.6c0-4 3-6.4 8.4-7.1h16.2c5.4.7 8.2 3 8.2 7v15.8c0 3.2-1.2 5-4 6l6.6 6h-7.7l-5.3-4.8-5.2.3h-7a19 19 0 0 1-4-.5c-4-1.1-6.1-3.3-6.1-7zm7.2-.4l.1.7c.4 1.8 2 2.8 4.7 2.8h6l-5.5-5h7.7l4.8 4.4a3 3 0 0 0 1.6-2.2V55.4c-.3-1.7-2-2.7-4.6-2.7h-10c-2.9 0-4.8 1.3-4.8 3.3z" class="st1"/>
  <path id="XMLID_10_" fill="#00678f" stroke-width=".5" d="M193 57a26 26 0 0 0-9.9 1.4c-.7.3-2 .3-2 1.2.4.5.4 1.1.8 1.6.6 1 1.7 2.4 2.6 3.2l3.2 2.3c2 1.2 4.2 1.9 6.1 3l3.4 2.5c.5.4 1 1 1.5 1.2l-.8-1.7-1.5-1.4c-1.4-2-3.3-3.7-5.3-5-1.6-1.2-5-2.8-5.7-4.6l3.3-1c1.8-.3 3.3-.2 5-.7a40 40 0 0 0 2.5-.7v-.5c-1-.9-1.6-2-2.6-3a70.7 70.7 0 0 0-8.2-6.2c-1.6-1-3.6-1.7-5.3-2.5-.6-.3-1.6-.4-2-1-1-1-1.4-2.5-2-3.8-1.5-2.8-3-5.8-4.2-8.8-1-2-1.5-4-2.6-5.7a50.6 50.6 0 0 0-19.5-19c-2-1-4.1-1.4-6.5-2l-3.8-.2c-.7-.3-1.5-1.3-2.3-1.8C134.3 2 127-2 124.8 3.2c-1.4 3.3 2 6.6 3.2 8.2.9 1.1 2 2.5 2.6 3.8l.8 2.6c.8 2.2 1.6 4.7 2.6 6.8.6 1 1.2 2.2 1.9 3.1.4.6 1.1.8 1.2 1.8-.7 1-.7 2.5-1.1 3.7a22.4 22.4 0 0 0 1.5 17c.8 1.3 2.6 4 5.3 3 2.3-1 1.7-3.8 2.4-6.4.1-.5 0-1 .3-1.3l2 4.2c1.6 2.5 4.4 5 6.7 6.8 1.2 1 2 2.5 3.6 3-.4-.6-.8-.7-1.2-1-1-1-2-2-2.7-3a73.7 73.7 0 0 1-7.8-14c-.3-.8-.3-1.7-.8-2-.8 1-2 2-2.4 3.4-1 2.2-1 4.9-1.4 7.6l-.2.2c-1.6-.4-2.2-2-2.7-3.5a21.3 21.3 0 0 1-.5-13.5c.3-1 2-4.4 1.3-5.4-.3-1-1.3-1.5-1.9-2.3-.6-1-1.4-2.1-1.8-3.2-1.3-2.8-1.9-6-3.2-8.8-.6-1.3-1.7-2.7-2.5-3.9-1-1.3-2-2.3-2.7-4-.3-.4-.6-1.3-.2-2 0-.3.2-.5.7-.6.6-.5 2.5 0 3.2.4a26 26 0 0 1 5 2.5c.7.5 1.5 1.5 2.3 1.8h1c1.7.3 3.5 0 5 .6 2.7.8 5 2 7.2 3.4a44 44 0 0 1 15.8 17.3c.6 1.1.9 2.2 1.4 3.4 1 2.5 2.4 5 3.4 7.4 1 2.4 2 4.8 3.6 6.8.8 1 3.8 1.6 5.2 2.2 1 .4 2.5.8 3.4 1.4 1.8 1 3.5 2.3 5 3.4 1 .6 3.5 1.9 3.6 3z" class="st0"/>
  <path id="XMLID_11_" fill="#00678f" fill-rule="evenodd" stroke-width=".5" d="M141.5 13.2l-2 .2v.1c.4.9 1.1 1.4 1.6 2.1l1.2 2.4c.8-.6 1-1.4 1-2.6-.1-.3-.2-.7-.5-1-.2-.5-1-.8-1.3-1.2z" clip-rule="evenodd"/>
  <path id="XMLID_16_" fill="#e48d1a" fill-rule="evenodd" stroke-width=".5" d="M190.3 74.2c0 3 2.3 4.9 4.8 4.9 2.6 0 4.9-2 4.9-5 0-2.8-2.3-4.8-4.9-4.8-2.5 0-4.8 2-4.8 4.9zm8.5 0c0 2.2-1.6 3.8-3.7 3.8a3.7 3.7 0 0 1-3.8-3.8c0-2.2 1.6-3.8 3.8-3.8 2 0 3.7 1.6 3.7 3.8zm-2.4 2.8h1l-1.5-2.4c1-.1 1.5-.5 1.5-1.6s-.7-1.5-2-1.5h-2.2V77h1v-2.4h.8zm-2.3-3.2v-1.6h1c.6 0 1.3.1 1.3.8 0 .8-.6.8-1.3.8z" clip-rule="evenodd"/>
  <path id="XMLID_19_" fill="#989a9d" stroke-width=".5" d="M.3 30.8l2.5-.2c1.4 0 2.3.3 2.9.8a3 3 0 0 1 .9 2.2c0 .9-.3 1.6-.8 2.2-.7.7-1.8 1-3 1h-1v4H0zm1.3 5h1.1c1.6 0 2.6-.8 2.6-2.2 0-1.3-1-2-2.4-2l-1.3.2z" class="st4"/>
  <path id="XMLID_22_" fill="#989a9d" stroke-width=".5" d="M15 37c0 2.8-2 4-3.7 4-2 0-3.5-1.4-3.5-3.8s1.6-4 3.6-4c2.1 0 3.6 1.7 3.6 3.9zm-5.9.2c0 1.6 1 2.8 2.2 2.8 1.3 0 2.2-1.2 2.2-2.8 0-1.3-.6-2.8-2.2-2.8-1.5 0-2.2 1.4-2.2 2.8z" class="st4"/>
  <path id="XMLID_23_" fill="#989a9d" stroke-width=".5" d="M17.1 33.6l1 3.7.6 2.3.7-2.3 1.2-3.7h1l1.2 3.6.7 2.4.6-2.4 1-3.6h1.4L24 40.8h-1.3l-1-3.5L21 35l-.7 2.4-1 3.5H18l-2.2-7.3H17z" class="st4"/>
  <path id="XMLID_26_" fill="#989a9d" stroke-width=".5" d="M28.4 37.5c0 1.8 1.2 2.5 2.5 2.5 1 0 1.6-.2 2-.4l.3 1c-.5.1-1.3.4-2.4.4-2.3 0-3.6-1.5-3.6-3.7s1.3-4 3.4-4c2.4 0 3 2.1 3 3.5v.6h-5.2zm4-1c0-1-.4-2.2-2-2.2-1.3 0-1.9 1.3-2 2.2z" class="st4"/>
  <path id="XMLID_27_" fill="#989a9d" stroke-width=".5" d="M35.2 35.8v-2.3h1V35h.2c.3-1 1.2-1.6 2-1.6h.4v1.4h-.4c-1 0-1.6.6-1.8 1.6V41h-1.3v-5z" class="st4"/>
  <path id="XMLID_30_" fill="#989a9d" stroke-width=".5" d="M41 37.5c0 1.8 1 2.5 2.4 2.5 1 0 1.6-.2 2-.4l.3 1c-.5.1-1.3.4-2.4.4-2.3 0-3.6-1.5-3.6-3.7s1.3-4 3.4-4c2.4 0 3 2.1 3 3.5v.6h-5.2zm3.8-1c0-1-.3-2.2-1.9-2.2-1.3 0-1.9 1.3-2 2.2z" class="st4"/>
  <path id="XMLID_33_" fill="#989a9d" stroke-width=".5" d="M54 30.1v10.7h-1l-.2-1.3c-.4 1-1.3 1.5-2.5 1.5-1.7 0-3-1.5-3-3.8 0-2.4 1.4-4 3.2-4 1 0 2 .6 2.2 1.2V30H54zm-1.3 6.4V36a2 2 0 0 0-2-1.6c-1.4 0-2.2 1.2-2.2 2.8 0 1.5.7 2.7 2.2 2.7a2 2 0 0 0 1.9-1.6v-1.8z" class="st4"/>
  <path id="XMLID_36_" fill="#989a9d" stroke-width=".5" d="M59.4 40.8V30.2h1.3v4.6c.6-.9 1.4-1.3 2.6-1.3 1.8 0 3 1.5 3 3.7 0 2.6-1.6 3.9-3.3 3.9-1 0-2-.4-2.4-1.4V41h-1.2zm1.3-3v.6a2 2 0 0 0 2 1.5c1.4 0 2.3-1.1 2.3-2.8 0-1.5-.8-2.7-2.2-2.7a2 2 0 0 0-2 1.6v2z" class="st4"/>
  <path id="XMLID_37_" fill="#989a9d" stroke-width=".5" d="M68.5 33.6l1.5 4.3.5 1.5.6-1.6 1.4-4.2H74l-2 5.2c-1 2.5-1.5 3.7-2.5 4.5a4 4 0 0 1-1.6 1l-.3-1.2a2 2 0 0 0 1-.7c.5-.2.9-.8 1.2-1.4l.1-.4v-.3L67 33.6z" class="st4"/>
</svg>
