<svg xmlns="http://www.w3.org/2000/svg" width="200" height="70" viewBox="0 0 200 70">
  <path fill="#039e49" stroke-width=".3" d="M57.8 24v-.4c0-8-6.8-15-16.5-18.2 4.2 4.1 7.2 10.6 8 18.2v.4H46c-1-9.4-5.5-17-11.4-19.3 2.5 5.8 3 16.5 3 19.3h-3c-.5-13.3-3-19.6-4.2-20.2-1.5.8-4.2 9-4.2 23.5V70h-3V27.3a67.3 67.3 0 0 1 3-22.6 7.5 7.5 0 0 0-1 .5H25l-.3.3c-.8.4-1.6 1-2.4 1.7l-.3.3a14.5 14.5 0 0 0-2 2.3l-.2.3a22.4 22.4 0 0 0-1.7 2.7l-.4.9a13.7 13.7 0 0 0-.8 1.8v.2a23.3 23.3 0 0 0-1.3 4l-.1.4v.4a28.4 28.4 0 0 0-.7 4.8V70h-3.1V27.3a37.9 37.9 0 0 1 2.7-13.8l.2-.4.2-.5.2-.4.2-.3a15.2 15.2 0 0 1 1-1.7s0-.2 0-.3l.7-1 .4-.5.4-.6a16.9 16.9 0 0 1 .7-.9h.1l.3-.5c.2 0 .3-.2.4-.3l.3-.3.4-.5C10 8.3 3 15.3 3 23.6V70H0V23.6C0 11 13.7.6 30.5.6V1 .6C47.5.6 61 11.4 61 24zM30.5.7V1 .7zm27.3 57.8h3.1V70h-3.1z"/>
  <path fill="none" stroke="#039e49" stroke-miterlimit="10" stroke-width=".6" d="M47.8 58.5v10h1.6"/>
  <path fill="#039e49" d="M46.3 58.5h3V70h-3zM30.5 1zm4.3 57.5h3V70h-3zM11.7 70V27.3 70zm3 0V27.3 70z"/>
  <path fill="#393e44" stroke-width=".3" d="M31.3 40.3c0-1.4.2-2.7.7-3.8.4-1.2 1-2 2-3 .7-.8 1.7-1.4 2.8-1.8a11 11 0 0 1 7.4 0 8.2 8.2 0 0 1 4.9 4.7c.5 1.1.7 2.4.7 3.8A9 9 0 0 1 49 44a8.5 8.5 0 0 1-4.9 4.8 10.4 10.4 0 0 1-7.4 0A8.5 8.5 0 0 1 32 44a9.7 9.7 0 0 1-.7-3.7zm3.2-.2c0 1 .2 1.8.5 2.6a5.7 5.7 0 0 0 5.6 3.9 5.6 5.6 0 0 0 5.6-3.9 7.5 7.5 0 0 0 0-5 5.6 5.6 0 0 0-3.1-3.3 6 6 0 0 0-5 0 5.6 5.6 0 0 0-3.1 3.2 7 7 0 0 0-.5 2.5zM51 37h2.8v2c.5-.8 1-1.3 1.7-1.6a6 6 0 0 1 4.8 0 5.5 5.5 0 0 1 3 3.3 7.4 7.4 0 0 1 0 4.8 6 6 0 0 1-1.2 2 5.4 5.4 0 0 1-4 1.8 5.7 5.7 0 0 1-2.7-.6 4.4 4.4 0 0 1-1.4-1.2v7h-3zm9.8 6c0-.5 0-1-.3-1.3a3.3 3.3 0 0 0-3.2-2.2 3.4 3.4 0 0 0-2.6 1l-.6 1.2a3.8 3.8 0 0 0 .6 3.8 3.4 3.4 0 0 0 2.6 1 3.4 3.4 0 0 0 2.5-1c.3-.4.6-.7.7-1.2.2-.4.3-.8.3-1.3zm6.8 1a3 3 0 0 0 3.2 2.8c.7 0 1.3 0 1.8-.4.5-.3 1-.7 1.4-1.2l2 1.6a6 6 0 0 1-5 2.4 7 7 0 0 1-2.4-.4 6 6 0 0 1-3.4-3.2c-.4-.8-.5-1.7-.5-2.6a6.2 6.2 0 0 1 1.8-4.5 6 6 0 0 1 2-1.3 7 7 0 0 1 2.6-.4 5 5 0 0 1 4 1.7c.5.5.8 1.2 1 2 .4.8.5 1.7.5 2.7v.8zm6-2.2c0-.8-.2-1.5-.7-2a3 3 0 0 0-2.2-.8c-1 0-1.6.3-2.1.8a3 3 0 0 0-1 2h6zM78 37H81v2a3.8 3.8 0 0 1 3.6-2.2 4 4 0 0 1 2 .4 3.8 3.8 0 0 1 2 2.5c.3.6.3 1 .3 1.8v7.4h-3v-7a4 4 0 0 0-.2-1.2l-.7-1-1.2-.2c-.5 0-.9 0-1.2.2l-1 .7-.3 1-.2 1V49h-3V37zm25.2-1.4a5.2 5.2 0 0 0-1.8-1.4 5 5 0 0 0-2-.4 5.6 5.6 0 0 0-5.5 3.8 10 10 0 0 0 0 5.1 5.7 5.7 0 0 0 5.7 3.9c.6 0 1.3-.2 2-.6.7-.3 1.3-.8 1.9-1.6l2.5 1.9a7 7 0 0 1-3 2.3 10.2 10.2 0 0 1-7.2 0 8.5 8.5 0 0 1-4.8-4.6 9.7 9.7 0 0 1-.7-3.7 9.2 9.2 0 0 1 2.7-6.8c.7-.8 1.7-1.4 2.8-1.8a10.2 10.2 0 0 1 7 0c1 .4 2 1 2.8 2zM115 47.3c-.5.7-1 1.2-1.7 1.5-.7.3-1.4.4-2.2.4-.5 0-1 0-1.6-.2l-1.4-.7-1-1c-.2-.5-.3-1-.3-1.6 0-.7 0-1.2.3-1.7l1-1c.3-.4.8-.6 1.3-.8l1.6-.4a14.4 14.4 0 0 1 3.2-.2h.8v-.4c0-.7-.3-1.3-.8-1.6-.5-.4-1.2-.6-2-.6a4.6 4.6 0 0 0-3.1 1.2l-1.6-1.5a6 6 0 0 1 2.4-1.5 8.5 8.5 0 0 1 4.8-.1l1.4.7c.4.3.7.6.9 1l.4 1.2.2 1v8H115v-1.6zm-.2-3.7h-.6a22.5 22.5 0 0 0-2.8.3l-1.2.5c-.3.3-.5.6-.5 1l.2.7.5.5c.2.2.4.3.7.3h.7c1 0 1.8-.1 2.3-.6.4-.5.7-1.2.7-2v-.7zm16.7-6.6v11c0 1-.1 2-.4 3-.3.7-.7 1.4-1.2 2-.6.6-1.3 1-2 1.4a10.8 10.8 0 0 1-6.2 0 7 7 0 0 1-2.7-1.4l1.7-2.4a6.7 6.7 0 0 0 4.1 1.7c.7 0 1.3 0 1.8-.3a3 3 0 0 0 1.2-.8l.6-1.3.1-1.6v-.9c-.4.6-1 1-1.7 1.3-.7.3-1.4.5-2.2.5a5.9 5.9 0 0 1-4.2-1.8c-.6-.6-1-1.2-1.2-2a7.4 7.4 0 0 1 0-4.8 5.6 5.6 0 0 1 3-3.2 6 6 0 0 1 2.4-.5 6 6 0 0 1 2.3.5c.7.3 1.3.8 1.7 1.6v-2h3zm-6.3 2.5c-.5 0-1 0-1.4.2l-1.1.7c-.3.3-.6.7-.7 1.1a3.8 3.8 0 0 0 0 2.8 3.3 3.3 0 0 0 1.8 1.8 3.8 3.8 0 0 0 2.8 0c.5-.1.8-.4 1.2-.7l.7-1 .2-1.5c0-1-.3-1.8-1-2.5-.6-.6-1.4-1-2.5-1zm10.4 4.5a3 3 0 0 0 3.2 2.8c.7 0 1.3 0 1.8-.4a4 4 0 0 0 1.4-1.2l2 1.6a6 6 0 0 1-5 2.4 7 7 0 0 1-2.4-.4 6 6 0 0 1-3.4-3.2c-.4-.8-.5-1.7-.5-2.6a6.2 6.2 0 0 1 1.8-4.5 6 6 0 0 1 2-1.3 7 7 0 0 1 2.6-.4 5 5 0 0 1 5 3.7c.4.8.5 1.7.5 2.7v.8zm6-2.2c0-.8-.2-1.5-.7-2a3 3 0 0 0-2.2-.8c-1 0-1.6.3-2 .8a3 3 0 0 0-1 2h6zm10.9-10.3h6.9c1 0 2.2.2 3.3.5 1 .4 2 1 2.8 1.6a9 9 0 0 1 2 2.7c.5 1.1.7 2.4.7 4s-.3 2.7-.8 3.8c-.6 1-1.3 2-2.2 2.7a10.4 10.4 0 0 1-6.2 2.1h-6.5zm5.4 14.6c1 0 2-.1 2.7-.3 1-.2 1.7-.6 2.3-1a5 5 0 0 0 1.5-1.9 6 6 0 0 0 .6-2.7c0-1-.2-2-.5-2.7-.4-.8-.8-1.4-1.4-1.8-.6-.5-1.3-1-2-1a8 8 0 0 0-2.7-.4h-2.8V46h2.3zm19 1.2a4 4 0 0 1-1.8 1.5 5 5 0 0 1-2.2.4c-.5 0-1 0-1.5-.2l-1.4-.7c-.4-.3-.8-.6-1-1-.2-.5-.4-1-.4-1.6 0-.7 0-1.2.4-1.7.2-.4.5-.8 1-1 .3-.4.7-.6 1.2-.8l1.6-.4a14.4 14.4 0 0 1 3.3-.2h.7v-.4c0-.7-.2-1.3-.8-1.6a3 3 0 0 0-2-.6 4.6 4.6 0 0 0-3 1.2l-1.6-1.5c.7-.7 1.4-1.2 2.3-1.5a8.5 8.5 0 0 1 4.8-.1l1.5.7.8 1 .5 1.2v9h-2.5v-1.6zm-.3-3.7h-.6a22.6 22.6 0 0 0-2.8.3c-.5.1-.8.3-1 .5-.5.3-.6.6-.6 1 0 .3 0 .6.2.7 0 .2.3.4.4.5.2.2.5.3.7.3h.8c1 0 1.7-.1 2.2-.6.5-.5.7-1.2.7-2v-.7zm3.3-4V37h2.4v-3.4h3V37h3.2v2.5h-3.2v5.2c0 .6 0 1 .3 1.4.2.3.6.5 1.3.5h1l.6-.4v2.5a2 2 0 0 1-1.1.3h-1.2a6 6 0 0 1-2 0 2.6 2.6 0 0 1-1.7-2.3c-.2-.5-.2-1-.2-1.8v-5.4H180zm17.4 7.7a4 4 0 0 1-1.7 1.5 5.8 5.8 0 0 1-3.8.2l-1.3-.7-1-1c-.2-.5-.3-1-.3-1.6 0-.7 0-1.2.3-1.7.2-.4.5-.8 1-1 .3-.4.8-.6 1.3-.8l1.6-.4a14.4 14.4 0 0 1 3.2-.2h.7v-.4c0-.7-.2-1.3-.7-1.6-.5-.4-1.2-.6-2-.6a4.6 4.6 0 0 0-3.1 1.2l-1.6-1.5c.7-.7 1.5-1.2 2.3-1.5a8.5 8.5 0 0 1 5-.1l1.3.7c.4.3.7.6.9 1l.4 1.2.2 1v8h-2.7v-1.6zm-.1-3.7h-.6a22.6 22.6 0 0 0-3 .3l-1 .5c-.3.3-.5.6-.5 1 0 .3 0 .6.2.7l.5.5c.2.2.4.3.7.3h.7c1 0 1.8-.1 2.2-.6.5-.5.8-1.2.8-2z"/>
</svg>
